<svg width="450" height="450" viewBox="0 0 450 450" fill="none" xmlns="http://www.w3.org/2000/svg">
<rect x="0.5" y="0.5" width="449" height="449" rx="4.5" stroke="#C4CDD5"/>
<path d="M266.195 196.326H257.976V185.758C257.976 180.903 254.026 176.953 249.171 176.953H183.805C178.95 176.953 175 180.903 175 185.758V244.868C175 249.724 178.95 253.674 183.805 253.674H192.024V264.241C192.024 269.096 195.974 273.047 200.829 273.047H266.195C271.05 273.047 275 269.097 275 264.241V205.132C275 200.276 271.05 196.326 266.195 196.326ZM266.195 200.232C268.896 200.232 271.094 202.43 271.094 205.131V257.445L246.201 229.305C245.83 228.886 245.298 228.646 244.738 228.646C244.179 228.646 243.646 228.886 243.275 229.305L229.924 244.398L220.437 234.159C220.067 233.76 219.548 233.533 219.004 233.533C218.46 233.533 217.941 233.76 217.571 234.159L195.93 257.515V205.132C195.93 202.43 198.128 200.233 200.829 200.233H266.195V200.232ZM227.323 247.338L217.583 258.348H200.483L219.004 238.361L227.323 247.338ZM192.024 205.132V249.768H183.805C181.104 249.768 178.906 247.57 178.906 244.868V185.758C178.906 183.057 181.104 180.859 183.805 180.859H249.171C251.872 180.859 254.07 183.057 254.07 185.758V196.326H200.829C195.974 196.326 192.024 200.276 192.024 205.132ZM266.195 269.141H200.829C198.128 269.141 195.93 266.943 195.93 264.241V262.253C195.957 262.254 195.984 262.255 196.011 262.255H238.287C239.366 262.255 240.24 261.38 240.24 260.302C240.24 259.223 239.366 258.349 238.287 258.349H222.799L244.738 233.547L266.678 258.349H255.946C254.867 258.349 253.993 259.223 253.993 260.302C253.993 261.38 254.867 262.255 255.946 262.255H271.094V264.241C271.094 266.943 268.896 269.141 266.195 269.141Z" fill="#C4CDD5"/>
<path d="M247.153 262.254C246.338 262.254 245.593 261.73 245.317 260.964C245.047 260.219 245.268 259.355 245.865 258.833C246.505 258.273 247.461 258.196 248.184 258.644C248.871 259.069 249.23 259.909 249.064 260.699C248.876 261.594 248.069 262.254 247.153 262.254Z" fill="#C4CDD5"/>
<path d="M226.154 227.62C220.443 227.62 215.797 222.973 215.797 217.262C215.797 211.551 220.443 206.905 226.154 206.905C231.865 206.905 236.512 211.551 236.512 217.262C236.512 222.973 231.865 227.62 226.154 227.62ZM226.154 210.811C222.597 210.811 219.703 213.705 219.703 217.262C219.703 220.819 222.597 223.713 226.154 223.713C229.712 223.713 232.605 220.819 232.605 217.262C232.605 213.705 229.712 210.811 226.154 210.811Z" fill="#C4CDD5"/>
</svg>
