<svg width="110" height="87" viewBox="0 0 110 87" fill="none" xmlns="http://www.w3.org/2000/svg">
<path d="M23.7461 43.5L45.3096 6.58569V80.4144L23.7461 43.5Z" fill="#FE54F7"/>
<path d="M110 43.5L88.4366 6.58569V80.4144L110 43.5Z" fill="#FE54F7"/>
<path d="M45.3096 6.58569H88.4366V80.4144H45.3096V6.58569Z" fill="#FE54F7"/>
<path d="M0 43.5L25.4921 0V87L0 43.5Z" fill="#A4218F"/>
<path d="M101.968 43.5L76.4762 0V87L101.968 43.5Z" fill="#A4218F"/>
<path d="M25.4921 0H76.4762V87H25.4921V0Z" fill="#A4218F"/>
<ellipse cx="13.9683" cy="23.2232" rx="13.9683" ry="13.8645" fill="#FE54F7"/>
<path d="M54.1672 70.763H65.4561V59.7134H72.5902V49.9089H65.4561V15.6709H52.5992L29.9429 49.9089V59.7134H54.1672V70.763ZM54.1672 49.9089H41.7022L54.0104 30.9224H54.1672V49.9089Z" fill="white"/>
</svg>
