<svg width="18" height="24" viewBox="0 0 18 24" fill="none" xmlns="http://www.w3.org/2000/svg">
<path d="M12 0V6H18L12 0Z" fill="#5C5F62"/>
<path d="M12 7.5C11.1735 7.5 10.5 6.8265 10.5 6V0H1.5C0.6735 0 0 0.6735 0 1.5V22.5C0 23.328 0.6735 24 1.5 24H16.5C17.328 24 18 23.328 18 22.5V7.5H12ZM5.25 4.593V3.75C5.25 3.336 5.586 3 6 3C6.414 3 6.75 3.336 6.75 3.75V4.5945C7.2195 4.701 7.6575 4.899 8.019 5.193C8.3415 5.454 8.3895 5.9265 8.127 6.2475C7.8645 6.57 7.392 6.6165 7.0725 6.3555C6.789 6.126 6.408 6 6 6C5.187 6 4.5 6.5145 4.5 7.125C4.5 7.7355 5.187 8.25 6 8.25C7.6545 8.25 9 9.4275 9 10.875C9 12.0945 8.04 13.113 6.75 13.407V14.25C6.75 14.664 6.414 15 6 15C5.586 15 5.25 14.664 5.25 14.25V13.4055C4.7805 13.299 4.3425 13.101 3.981 12.807C3.6585 12.5445 3.6105 12.072 3.873 11.751C4.1355 11.427 4.6065 11.382 4.9275 11.643C5.211 11.874 5.592 12 6 12C6.813 12 7.5 11.4855 7.5 10.875C7.5 10.2645 6.813 9.75 6 9.75C4.3455 9.75 3 8.5725 3 7.125C3 5.9055 3.96 4.887 5.25 4.593ZM14.25 21H3.75C3.336 21 3 20.664 3 20.25C3 19.836 3.336 19.5 3.75 19.5H14.25C14.664 19.5 15 19.836 15 20.25C15 20.664 14.664 21 14.25 21ZM14.25 18H3.75C3.336 18 3 17.664 3 17.25C3 16.836 3.336 16.5 3.75 16.5H14.25C14.664 16.5 15 16.836 15 17.25C15 17.664 14.664 18 14.25 18ZM14.25 15H11.25C10.836 15 10.5 14.664 10.5 14.25C10.5 13.836 10.836 13.5 11.25 13.5H14.25C14.664 13.5 15 13.836 15 14.25C15 14.664 14.664 15 14.25 15ZM14.25 12H11.25C10.836 12 10.5 11.664 10.5 11.25C10.5 10.836 10.836 10.5 11.25 10.5H14.25C14.664 10.5 15 10.8345 15 11.25C15 11.664 14.664 12 14.25 12Z" fill="#5C5F62"/>
</svg>
