<svg width="40" height="40" viewBox="0 0 40 40" fill="none" xmlns="http://www.w3.org/2000/svg">
<rect width="40" height="40" rx="3" fill="#F4F6F8"/>
<path d="M23 8V14H29L23 8Z" fill="#5C5F62"/>
<path d="M23 15.5C22.1735 15.5 21.5 14.8265 21.5 14V8H12.5C11.6735 8 11 8.6735 11 9.5V30.5C11 31.328 11.6735 32 12.5 32H27.5C28.328 32 29 31.328 29 30.5V15.5H23ZM16.25 12.593V11.75C16.25 11.336 16.586 11 17 11C17.414 11 17.75 11.336 17.75 11.75V12.5945C18.2195 12.701 18.6575 12.899 19.019 13.193C19.3415 13.454 19.3895 13.9265 19.127 14.2475C18.8645 14.57 18.392 14.6165 18.0725 14.3555C17.789 14.126 17.408 14 17 14C16.187 14 15.5 14.5145 15.5 15.125C15.5 15.7355 16.187 16.25 17 16.25C18.6545 16.25 20 17.4275 20 18.875C20 20.0945 19.04 21.113 17.75 21.407V22.25C17.75 22.664 17.414 23 17 23C16.586 23 16.25 22.664 16.25 22.25V21.4055C15.7805 21.299 15.3425 21.101 14.981 20.807C14.6585 20.5445 14.6105 20.072 14.873 19.751C15.1355 19.427 15.6065 19.382 15.9275 19.643C16.211 19.874 16.592 20 17 20C17.813 20 18.5 19.4855 18.5 18.875C18.5 18.2645 17.813 17.75 17 17.75C15.3455 17.75 14 16.5725 14 15.125C14 13.9055 14.96 12.887 16.25 12.593ZM25.25 29H14.75C14.336 29 14 28.664 14 28.25C14 27.836 14.336 27.5 14.75 27.5H25.25C25.664 27.5 26 27.836 26 28.25C26 28.664 25.664 29 25.25 29ZM25.25 26H14.75C14.336 26 14 25.664 14 25.25C14 24.836 14.336 24.5 14.75 24.5H25.25C25.664 24.5 26 24.836 26 25.25C26 25.664 25.664 26 25.25 26ZM25.25 23H22.25C21.836 23 21.5 22.664 21.5 22.25C21.5 21.836 21.836 21.5 22.25 21.5H25.25C25.664 21.5 26 21.836 26 22.25C26 22.664 25.664 23 25.25 23ZM25.25 20H22.25C21.836 20 21.5 19.664 21.5 19.25C21.5 18.836 21.836 18.5 22.25 18.5H25.25C25.664 18.5 26 18.8345 26 19.25C26 19.664 25.664 20 25.25 20Z" fill="#5C5F62"/>
</svg>
