<svg width="24" height="22" viewBox="0 0 24 22" fill="none" xmlns="http://www.w3.org/2000/svg">
<path d="M23.9385 12.499C22.9155 14.0755 21.3555 15.4165 19.1205 16.7005C18.777 16.897 18.39 16.999 18 16.999C17.61 16.999 17.223 16.897 16.884 16.7035C14.649 15.4165 13.089 14.074 12.0645 12.499H0V19.999C0 20.827 0.6735 21.499 1.5 21.499H22.5C23.328 21.499 24 20.827 24 19.999V12.499H23.9385ZM6.75 16.999H3.75C3.336 16.999 3 16.663 3 16.249C3 15.835 3.336 15.499 3.75 15.499H6.75C7.164 15.499 7.5 15.835 7.5 16.249C7.5 16.663 7.164 16.999 6.75 16.999Z" fill="#5C5F62"/>
<path d="M23.5455 2.81173L18.2955 0.561727C18.105 0.480727 17.8935 0.480727 17.703 0.561727L12.453 2.81173C12.1785 2.92873 12 3.20023 12 3.50023V6.50023C12 10.6267 13.5255 13.0387 17.6265 15.4012C17.742 15.4672 17.871 15.5002 18 15.5002C18.129 15.5002 18.258 15.4672 18.3735 15.4012C22.4745 13.0447 24 10.6327 24 6.50023V3.50023C24 3.20023 23.8215 2.92873 23.5455 2.81173ZM20.8365 6.21973L17.8365 9.96973C17.6925 10.1467 17.4765 10.2502 17.25 10.2502C17.2395 10.2502 17.2275 10.2502 17.2185 10.2502C16.98 10.2397 16.7595 10.1167 16.626 9.91723L15.126 7.66723C14.8965 7.32223 14.9895 6.85723 15.3345 6.62773C15.6765 6.39973 16.143 6.48973 16.374 6.83623L17.3055 8.23273L19.6635 5.28373C19.923 4.96123 20.3955 4.91023 20.718 5.16673C21.042 5.42323 21.093 5.89573 20.8365 6.21973Z" fill="#5C5F62"/>
</svg>
