<svg width="40" height="40" viewBox="0 0 40 40" fill="none" xmlns="http://www.w3.org/2000/svg">
<rect width="40" height="40" rx="3" fill="#F4F6F8"/>
<path d="M29.379 24.913C27.867 23.635 27 21.767 27 19.788V17C27 13.481 24.386 10.568 21 10.08V9C21 8.447 20.552 8 20 8C19.448 8 19 8.447 19 9V10.08C15.613 10.568 13 13.481 13 17V19.788C13 21.767 12.133 23.635 10.612 24.921C10.223 25.254 10 25.738 10 26.25C10 27.215 10.785 28 11.75 28H28.25C29.215 28 30 27.215 30 26.25C30 25.738 29.777 25.254 29.379 24.913Z" fill="#5C5F62"/>
</svg>
