<svg width="40" height="40" viewBox="0 0 40 40" fill="none" xmlns="http://www.w3.org/2000/svg">
<rect width="40" height="40" rx="3" fill="#F4F6F8"/>
<path d="M19.4441 24.5125C18.9023 24.5125 18.4632 24.0733 18.4632 23.5316C18.4632 22.9898 18.9024 22.5506 19.4441 22.5506L23.6948 22.5507H25.6567V21.5044V18.3653H23.6948H22.3076H17.4823C16.9406 18.3653 16.5014 17.9261 16.5014 17.3843V12.559V11.1718V9.20996H8.98093C8.43926 9.20996 8 9.64915 8 10.1909V29.8094C8 30.3512 8.43926 30.7903 8.98093 30.7903H24.6757C25.2175 30.7903 25.6567 30.3512 25.6567 29.8094V26.518V24.5125H23.6948L19.4441 24.5125Z" fill="#5C5F62"/>
<path d="M31.9947 23.4351C31.9932 23.4204 31.9905 23.4062 31.9884 23.3917C31.9859 23.3745 31.9839 23.3573 31.9805 23.3403C31.9772 23.3237 31.9728 23.3077 31.9686 23.2915C31.9648 23.2767 31.9616 23.2618 31.9572 23.2472C31.9524 23.2314 31.9465 23.216 31.9409 23.2006C31.9356 23.1859 31.9308 23.171 31.9248 23.1565C31.9188 23.142 31.9118 23.1282 31.9051 23.1142C31.8981 23.0992 31.8915 23.0842 31.8836 23.0695C31.8764 23.0561 31.8683 23.0434 31.8604 23.0303C31.8518 23.0158 31.8436 23.0013 31.8343 22.9872C31.8247 22.9729 31.814 22.9595 31.8037 22.9457C31.7948 22.9338 31.7866 22.9217 31.7772 22.9101C31.7575 22.8863 31.7369 22.8635 31.7152 22.8415C31.7141 22.8405 31.7133 22.8394 31.7122 22.8383L29.26 20.3859C28.877 20.0029 28.2558 20.0029 27.8728 20.3859C27.4897 20.7689 27.4897 21.39 27.8727 21.7731L28.6504 22.551H27.366H25.6562V24.5129H26.4942H28.6505L27.8728 25.2906C27.4897 25.6737 27.4897 26.2947 27.8728 26.6778C28.0642 26.8694 28.3153 26.9652 28.5663 26.9652C28.8174 26.9652 29.0684 26.8694 29.26 26.6778L31.7122 24.2256C31.7127 24.225 31.7131 24.2245 31.7136 24.2241C31.736 24.2016 31.7571 24.1782 31.7772 24.1538C31.7867 24.1422 31.795 24.13 31.8039 24.118C31.8141 24.1043 31.8247 24.0909 31.8343 24.0767C31.8438 24.0625 31.852 24.0478 31.8606 24.0334C31.8683 24.0204 31.8764 24.0077 31.8836 23.9944C31.8915 23.9797 31.8982 23.9644 31.9053 23.9494C31.9119 23.9355 31.9189 23.9217 31.9248 23.9074C31.9309 23.8928 31.9357 23.8779 31.941 23.863C31.9466 23.8477 31.9525 23.8325 31.9572 23.8167C31.9616 23.802 31.965 23.787 31.9687 23.7721C31.9728 23.756 31.9773 23.74 31.9806 23.7236C31.984 23.7065 31.986 23.6893 31.9885 23.6721C31.9905 23.6576 31.9932 23.6434 31.9947 23.6287C31.9979 23.597 31.9995 23.5651 31.9995 23.5332C31.9995 23.5328 31.9996 23.5323 31.9996 23.5319C31.9996 23.5314 31.9995 23.5308 31.9995 23.5303C31.9994 23.4984 31.9978 23.4667 31.9947 23.4351Z" fill="#5C5F62"/>
<path d="M25.0818 16.403L18.4629 9.78418V12.5586V16.403H22.3073H25.0818Z" fill="#5C5F62"/>
</svg>
