<svg width="40" height="40" viewBox="0 0 40 40" fill="none" xmlns="http://www.w3.org/2000/svg">
<rect width="40" height="40" rx="3" fill="#F4F6F8"/>
<path d="M19.9995 8C13.373 8 8 13.373 8 19.9995C8 26.626 13.373 32 19.9995 32C26.626 32 32 26.626 32 19.9995C32 13.373 26.626 8 19.9995 8ZM22.4975 26.5976C21.8799 26.8414 21.3882 27.0263 21.0194 27.1543C20.6517 27.2823 20.224 27.3463 19.7374 27.3463C18.9897 27.3463 18.4076 27.1634 17.9931 26.7987C17.5787 26.434 17.3724 25.9718 17.3724 25.41C17.3724 25.1916 17.3877 24.9681 17.4182 24.7406C17.4497 24.513 17.4994 24.257 17.5675 23.9695L18.3406 21.2389C18.4086 20.9768 18.4676 20.7279 18.5143 20.4963C18.561 20.2626 18.5834 20.0483 18.5834 19.8532C18.5834 19.5058 18.5112 19.262 18.368 19.1248C18.2227 18.9877 17.9495 18.9206 17.5421 18.9206C17.343 18.9206 17.1378 18.9501 16.9275 19.0121C16.7192 19.0761 16.5384 19.134 16.3901 19.1909L16.5943 18.3497C17.1002 18.1435 17.5848 17.9667 18.047 17.8204C18.5092 17.6721 18.946 17.599 19.3575 17.599C20.1001 17.599 20.673 17.7798 21.0763 18.1374C21.4776 18.496 21.6797 18.9623 21.6797 19.5352C21.6797 19.6541 21.6655 19.8634 21.6381 20.162C21.6107 20.4617 21.5589 20.735 21.4837 20.9859L20.7147 23.7084C20.6517 23.9269 20.5958 24.1768 20.545 24.4561C20.4952 24.7355 20.4709 24.9488 20.4709 25.0921C20.4709 25.4537 20.5511 25.7006 20.7137 25.8316C20.8742 25.9627 21.1556 26.0287 21.5538 26.0287C21.7417 26.0287 21.952 25.9952 22.1897 25.9302C22.4254 25.8651 22.5961 25.8072 22.7037 25.7575L22.4975 26.5976ZM22.3614 15.5469C22.0028 15.8801 21.571 16.0467 21.0662 16.0467C20.5623 16.0467 20.1275 15.8801 19.7658 15.5469C19.4062 15.2137 19.2244 14.8084 19.2244 14.335C19.2244 13.8626 19.4072 13.4563 19.7658 13.12C20.1275 12.7827 20.5623 12.6151 21.0662 12.6151C21.571 12.6151 22.0038 12.7827 22.3614 13.12C22.72 13.4563 22.8998 13.8626 22.8998 14.335C22.8998 14.8094 22.72 15.2137 22.3614 15.5469Z" fill="#5C5F62"/>
</svg>
