<svg width="40" height="40" viewBox="0 0 40 40" fill="none" xmlns="http://www.w3.org/2000/svg">
<rect width="40" height="40" rx="3" fill="#F4F6F8"/>
<path d="M14.502 14.4219H14.201L13.6387 17.2344H15.0643L14.502 14.4219Z" fill="#5C5F62"/>
<path d="M25.877 20.0469C26.1806 20.8625 26.5844 21.5226 27.0313 22.0844C27.4782 21.5226 27.9289 20.8624 28.2325 20.0469H25.877Z" fill="#5C5F62"/>
<path d="M29.8908 12.2656H21.1588L22.9795 26.8756C23.0117 27.4731 22.8483 28.0357 22.4583 28.4762L19.375 32H29.8908C31.054 32 32.0002 31.0538 32.0002 29.8906V14.4219C32.0002 13.2587 31.054 12.2656 29.8908 12.2656ZM29.8908 20.0469H29.703C29.3029 21.3305 28.6685 22.3348 28.0091 23.1267C28.5257 23.5989 29.078 23.9862 29.6271 24.4201C29.9299 24.6625 29.9794 25.1047 29.7363 25.4082C29.4943 25.7113 29.0504 25.7604 28.7482 25.5174C28.1515 25.0464 27.5915 24.6522 27.0314 24.1383C26.4714 24.6522 25.9582 25.0464 25.3615 25.5174C25.0593 25.7604 24.6154 25.7113 24.3734 25.4082C24.1303 25.1047 24.1798 24.6625 24.4826 24.4201C25.0317 23.9862 25.5372 23.5989 26.0537 23.1267C25.3944 22.3349 24.8067 21.3305 24.4067 20.0469H24.2189C23.8303 20.0469 23.5158 19.7324 23.5158 19.3438C23.5158 18.9551 23.8303 18.6406 24.2189 18.6406H26.3283V17.9375C26.3283 17.5489 26.6428 17.2344 27.0314 17.2344C27.4201 17.2344 27.7345 17.5489 27.7345 17.9375V18.6406H29.8908C30.2794 18.6406 30.5939 18.9551 30.5939 19.3438C30.5939 19.7324 30.2794 20.0469 29.8908 20.0469Z" fill="#5C5F62"/>
<path d="M19.4452 9.84777C19.314 8.79444 18.4138 8 17.3523 8H10.1094C8.94622 8 8 8.94622 8 10.1094V25.6719C8 26.835 8.94622 27.7812 10.1094 27.7812C14.3127 27.7812 17.3364 27.7812 21.1977 27.7812C21.4028 27.5468 21.5748 27.4 21.582 27.0939C21.5838 27.0172 19.4547 9.92389 19.4452 9.84777ZM16.6224 21.4394C16.2495 21.5161 15.8719 21.2741 15.795 20.888L15.3456 18.6406H13.3576L12.9082 20.888C12.8327 21.2684 12.466 21.5183 12.0808 21.4394C11.7004 21.3632 11.4532 20.9931 11.5294 20.612L12.9356 13.5807C13.0015 13.2525 13.2899 13.0156 13.625 13.0156H15.0781C15.4132 13.0156 15.7016 13.2525 15.7675 13.5807L17.1738 20.612C17.25 20.9931 17.0028 21.3632 16.6224 21.4394Z" fill="#5C5F62"/>
</svg>
