<svg width="35" height="35" viewBox="0 0 35 35" fill="none" xmlns="http://www.w3.org/2000/svg">
<circle cx="17.5" cy="17.5" r="17.5" fill="#2C6ECB"/>
<path d="M24.9038 7H11.0964C10.7728 7 10.5105 7.26234 10.5105 7.58594V24.6881C10.5105 24.8435 10.5723 24.9925 10.6821 25.1024L12.408 26.8284C12.6369 27.0572 13.0078 27.0572 13.2367 26.8284L14.5483 25.5168L15.8598 26.8284C15.9697 26.9382 16.1187 27 16.2741 27C16.4295 27 16.5786 26.9383 16.6885 26.8284L18 25.5168L19.3116 26.8284C19.4215 26.9382 19.5706 27 19.7259 27C19.8813 27 20.0304 26.9383 20.1402 26.8284L21.4518 25.5168L22.7634 26.8284C22.8778 26.9428 23.0277 27 23.1777 27C23.3276 27 23.4776 26.9428 23.592 26.8284L25.3179 25.1024C25.4278 24.9925 25.4896 24.8435 25.4896 24.6881V7.58594C25.4897 7.26234 25.2273 7 24.9038 7ZM17.414 11.4012V10.724C17.414 10.4004 17.6764 10.138 18 10.138C18.3236 10.138 18.5859 10.4004 18.5859 10.724V11.3932H19.2552C19.5788 11.3932 19.8412 11.6556 19.8412 11.9792C19.8412 12.3028 19.5788 12.5651 19.2552 12.5651H17.5817C17.2126 12.5651 16.9124 12.8653 16.9124 13.2344C16.9124 13.6034 17.2126 13.9037 17.5817 13.9037H18.4185C19.4337 13.9037 20.2597 14.7296 20.2597 15.7448C20.2597 16.7035 19.5229 17.4931 18.5859 17.578V18.2553C18.5859 18.5788 18.3236 18.8412 18 18.8412C17.6764 18.8412 17.414 18.5788 17.414 18.2553V17.5859H16.7448C16.4212 17.5859 16.1588 17.3236 16.1588 17C16.1588 16.6764 16.4212 16.414 16.7448 16.414H18.4185C18.7875 16.414 19.0878 16.1138 19.0878 15.7448C19.0878 15.3758 18.7876 15.0755 18.4185 15.0755H17.5817C16.5664 15.0755 15.7405 14.2496 15.7405 13.2343C15.7406 12.2757 16.4772 11.4862 17.414 11.4012ZM21.1381 21.9792H14.8621C14.5385 21.9792 14.2761 21.7168 14.2761 21.3932C14.2761 21.0696 14.5385 20.8073 14.8621 20.8073H21.1381C21.4616 20.8073 21.724 21.0696 21.724 21.3932C21.724 21.7168 21.4616 21.9792 21.1381 21.9792Z" fill="white"/>
</svg>
