<svg width="84" height="57" viewBox="0 0 84 57" fill="none" xmlns="http://www.w3.org/2000/svg">
<path d="M73.3681 0.340088H10.6319C4.76952 0.340088 0 5.10961 0 10.9719V45.7789C0 51.6412 4.76952 56.4107 10.6319 56.4107H73.3681C79.2305 56.4107 84 51.6412 84 45.7789V10.9719C84 5.10961 79.2305 0.340088 73.3681 0.340088ZM10.6319 5.64582H73.3681C76.305 5.64582 78.6943 8.03506 78.6943 10.9719V13.0647H5.30573V10.9719C5.30573 8.03506 7.69497 5.64582 10.6319 5.64582ZM78.6943 24.9292H5.30573V18.3705H78.6943V24.9292ZM73.3681 51.105H10.6319C7.69497 51.105 5.30573 48.7157 5.30573 45.7789V30.2349H78.6943V45.7789C78.6943 48.7157 76.305 51.105 73.3681 51.105Z" fill="#007EFF"/>
</svg>
