<svg id="Layer_1" data-name="Layer 1" xmlns="http://www.w3.org/2000/svg" viewBox="0 0 401.92 482.56"><defs><style>.cls-1{fill:#41a0fe;}.cls-2{fill:#066af4;}.cls-3{fill:#0e6ff4;}.cls-4{fill:#9ed8f3;}.cls-5{fill:#c1e3fa;}</style></defs><path class="cls-1" d="M180.76,351.76c4.41-.79,8.39,1.63,12.76,1.59,22.1-.19,42-6.05,59.83-19.83,13.54-10.49,22.88-23.59,29.43-39.07,3.1-7.33,7.21-11.54,15.94-11.27,9,.29,18-.07,26.93.12,3.53.08,5.79-.45,5.59-4.67a3.74,3.74,0,0,1,2-3.74,5.07,5.07,0,0,1,.24,1.93c-1,3.51-1,6,3.24,7.85,3.33,1.47,5.57,4.68,5.23,9.3-.54,7.27-3.13,14-5.37,20.68a181.06,181.06,0,0,1-15.36,34.29c-5.21,8.87-11.57,16.73-17.65,24.88-5.78,7.76-13.86,13.19-20.28,20.32-3.57,4-8.21,7.09-12.76,10-11,7-22,14-34.51,18.39-8.19,2.84-16.41,5.45-24.7,7.95a92,92,0,0,1-12.92,2.44l.23,1.54H215c-.36,1.79-1.79,1.72-3.12,1.73-7.82,0-15.78,1-23.45-.11-18.17-2.57-36.23-5.32-53.67-12a172.26,172.26,0,0,1-62.65-40.94,174.73,174.73,0,0,1-42.38-72.67c-5.84-19.49-6.83-39.19-6.23-59.26.28-9.12.83-18.22,2.88-27A190.18,190.18,0,0,1,39,187.45a173.06,173.06,0,0,1,43.14-57.62,164.11,164.11,0,0,1,42.24-27.5c15.65-6.87,31.88-12.48,49.2-13.85,4.46-.35,8.74-1.88,13.31-1.9,3.55,0,1.78-2.6,1.43-4.38-1.56-8-5.31-15.5-5.28-23.84,0-1.52-.8-3.51,1.75-4,1,3.76,3.58.7,5.36,1.05,5.66,1.12,10,4,14.7,7.41,11,8,21.7,16.3,32.73,24.2,5.64,4,11.23,8.11,16.83,12.17,6.42,4.65,13.18,8.92,18,15.18,2.92,3.77,5.36,8.17,5.48,13.4.26,11.61-8.07,17.6-15.75,23.71-8.82,7-18.19,13.35-27.3,20-11.13,8.12-21.79,16.86-33.1,24.75-4.17,2.91-8.16,4.82-13.26,4.35-1.24-.11-2.55.57-3.83.88-3.55-2.65-2.15-6.68-1.22-9.31,2.06-5.84,2.71-12,5.07-17.75.6-1.43.25-3.26.33-4.9,3.28-4,4-9.08,4.82-13.87,1-5.65-.75-7.15-6.44-7.23-7.79-.11-15.16,2-22.7,3.59a105.68,105.68,0,0,0-18.77,6.32c-6.26,2.61-11.43,7.07-17.09,10.68-9.55,6.08-16.54,14.38-23.14,23.22a106.65,106.65,0,0,0-14.71,28,132.47,132.47,0,0,0-7.72,34.17c-1,11.8,1,23.32,4.43,34.75,4.56,15.06,11.75,28.67,23,39.33,8.91,8.42,18.59,16,31.29,19.6,11.86,3.37,23.48,5.76,35.72,5.28C178.9,353.32,180.37,353.6,180.76,351.76Z"/><path class="cls-2" d="M180.76,351.76c-.39,1.84-1.86,1.56-3.17,1.61-12.24.48-23.86-1.91-35.72-5.28-12.7-3.6-22.38-11.18-31.29-19.6-11.28-10.66-18.47-24.27-23-39.33-3.45-11.43-5.42-23-4.43-34.75a132.47,132.47,0,0,1,7.72-34.17,106.65,106.65,0,0,1,14.71-28c6.6-8.84,13.59-17.14,23.14-23.22,5.66-3.61,10.83-8.07,17.09-10.68A105.68,105.68,0,0,1,164.55,152c7.54-1.61,14.91-3.7,22.7-3.59,5.69.08,7.45,1.58,6.44,7.23-.85,4.79-1.54,9.84-4.82,13.87-33.39,4.91-58.81,21-74.13,51.91-7.14,14.38-9,29.48-8.37,45.22,1.09,27.32,13,49,33.93,66.07,10.18,8.27,21.56,14.24,34.49,17,.75,2,1.83,3.19,4.07,1.81Z"/><path class="cls-2" d="M215,434.44H198.64l-.23-1.54a92,92,0,0,0,12.92-2.44c8.29-2.5,16.51-5.11,24.7-7.95,12.53-4.35,23.5-11.38,34.51-18.39,4.55-2.89,9.19-6,12.76-10,6.42-7.13,14.5-12.56,20.28-20.32,6.08-8.15,12.44-16,17.65-24.88a181.06,181.06,0,0,0,15.36-34.29c2.24-6.71,4.83-13.41,5.37-20.68.34-4.62-1.9-7.83-5.23-9.3-4.28-1.88-4.26-4.34-3.24-7.85a5.07,5.07,0,0,0-.24-1.93c.47-8.46-.47-16.95.84-25.37,1.52-.13,1.82-1,1.52-2.35,3.52-5.34,8.33-7.24,14.11-5.58,4.48,1.29,8.19,7.2,8.78,13,.8,7.71-1.92,15.08-1.81,22.72,0,2.69.27,4.12,3.46,5.29,8.78,3.19,9.73,6.73,7.66,16.44a165.7,165.7,0,0,1-17.36,46.25A176.9,176.9,0,0,1,291,408.75C276.66,418,261.14,424.54,245,429.42,235.37,432.35,225.37,435,215,434.44Z"/><path class="cls-2" d="M184.69,201.5c1.28-.31,2.59-1,3.83-.88,5.1.47,9.09-1.44,13.26-4.35,11.31-7.89,22-16.63,33.1-24.75,9.11-6.65,18.48-13,27.3-20,7.68-6.11,16-12.1,15.75-23.71-.12-5.23-2.56-9.63-5.48-13.4-4.86-6.26-11.62-10.53-18-15.18-5.6-4.06-11.19-8.14-16.83-12.17-11-7.9-21.76-16.21-32.73-24.2-4.66-3.39-9-6.29-14.7-7.41-1.78-.35-4.32,2.71-5.36-1.05,2.63-10.5,16.18-15,25.71-8.15,14.84,10.66,29.42,21.67,44.13,32.51,12.35,9.11,24.75,18.14,37.06,27.3,6.41,4.77,11.62,10.81,13.59,18.55s-2,14.25-7.23,19.73c-7.78,8.2-17.53,14-26.44,20.79q-26.37,20.09-53.17,39.63c-3.85,2.81-7.62,5.85-12.15,7.78C197.86,216.13,186.8,210.62,184.69,201.5Z"/><path class="cls-3" d="M273.86,196.48c6-7.76,14.28-6.84,19.5.2a87.83,87.83,0,0,1,14.71,31.72c1.75,7.07,3.37,14.13,3.66,21.38.27,6.74-4.8,11.85-11.59,12.4,1-15.57-3.24-30.1-9.74-43.9-3.39-7.2-6.36-15.32-15-18.53C273.79,199.14,273.81,197.84,273.86,196.48Z"/><path class="cls-4" d="M273.86,196.48c-.05,1.36-.07,2.66,1.56,3.27,8.62,3.21,11.59,11.33,15,18.53,6.5,13.8,10.71,28.33,9.74,43.9-8,.26-12.93-4.57-13.16-13.5-.37-14.48-6.06-27-13.63-38.92C271.1,206.23,271.26,198.81,273.86,196.48Z"/><path class="cls-3" d="M322.85,177.48c8.49-7.3,16.82-5.3,21.22,5,1.67,3.9,3.3,7.79,4.75,11.79,3.05,8.4,2.12,12.16-4.93,17.42-2.5-.38-6.53,1.68-5.78-3.79.61-4.43-1.24-8.45-2.93-12.28-2.63-6-4-13-11.5-15.5C322.52,179.71,322.92,178.43,322.85,177.48Z"/><path class="cls-5" d="M322.85,177.48c.07,1-.33,2.23.83,2.62,7.47,2.48,8.87,9.54,11.5,15.5,1.69,3.83,3.54,7.85,2.93,12.28-.75,5.47,3.28,3.41,5.78,3.79-1.67,3.21-4.06,3.14-7,1.79-5.33-2.42-9.45-5.28-11.05-11.77-1.66-6.8-5.74-13-5-20.42C321,179.7,320.36,177.78,322.85,177.48Z"/><path class="cls-1" d="M178.86,351.54c-2.24,1.38-3.32.15-4.07-1.81C176.61,349.28,178.1,349.6,178.86,351.54Z"/><path class="cls-1" d="M335.61,247.17c.3,1.31,0,2.22-1.52,2.35C333.64,248.11,334.65,247.65,335.61,247.17Z"/></svg>