<?xml version="1.0" encoding="utf-8"?>
<!-- Generator: Adobe Illustrator 27.0.0, SVG Export Plug-In . SVG Version: 6.00 Build 0)  -->
<svg version="1.1" id="Layer_1" xmlns="http://www.w3.org/2000/svg" xmlns:xlink="http://www.w3.org/1999/xlink" x="0px" y="0px"
	 viewBox="0 0 420 80" style="enable-background:new 0 0 420 80;" xml:space="preserve">
<style type="text/css">
	.st0{fill:#40A0FF;}
	.st1{fill:#0066F5;}
	.st2{fill:#A1DDF3;}
	.st3{fill:#C9EBFC;}
	.st4{fill:#FFFFFF;}
	.st5{font-family:'Gilroy-ExtraBold';}
	.st6{font-size:60px;}
</style>
<g>
	<path class="st0" d="M69.09,51.61c-2.56,13.14-14.15,23.06-28.04,23.04c-15.83-0.03-28.52-12.79-28.48-28.61
		c0.05-15.29,12.13-27.75,27.27-28.41l-0.86-3.32c-0.19-0.53-0.21-1.05-0.11-1.53c0.18-0.82,0.72-1.51,1.43-1.91
		c0.78-0.43,1.77-0.51,2.7-0.01l13.65,10.12c1.12,0.89,2.06,2.09,2.05,3.44c-0.01,1.34-0.9,2.48-2.05,3.42L43.01,37.96
		c-0.92,0.49-1.88,0.43-2.66,0.02c-0.73-0.38-1.28-1.07-1.47-1.89c0,0,0,0,0,0c-0.11-0.49-0.09-1.02,0.1-1.56l0.88-3.38
		c-7.73,0.62-13.8,7.09-13.8,14.98c0,8.37,6.84,15.15,15.24,15.03c6.35-0.09,11.78-4.17,13.89-9.83c0.37-0.98,1.29-1.64,2.34-1.64
		h5.57c0.25-1.59,0.35-3.21,0.32-4.8c-0.03-1.07,0.82-1.95,1.89-1.98c1.07-0.03,1.95,0.82,1.98,1.89c0.04,1.62-0.05,3.27-0.28,4.89
		h0.48C68.51,49.68,69.29,50.6,69.09,51.61L69.09,51.61L69.09,51.61z"/>
	<path class="st1" d="M26.06,46.12c0-7.89,6.08-14.36,13.81-14.98l0.66-2.53c0.12-0.47-0.24-0.92-0.73-0.9
		c-11.96,0.52-17.27,10.58-17.27,18.27c0,8.37,6.07,15.29,14.47,15.18c0.65-0.01,1.3-0.06,1.93-0.15
		C31.65,59.95,26.06,53.69,26.06,46.12L26.06,46.12L26.06,46.12z"/>
	<path class="st1" d="M67.49,49.68h-0.48c0.22-1.62,0.32-3.27,0.28-4.89c-0.03-1.07-0.91-1.91-1.98-1.89
		c-1.07,0.03-1.91,0.91-1.89,1.98c0.04,1.59-0.07,3.21-0.32,4.8h0.1c1.02,0,1.79,0.93,1.6,1.93c-2.43,12.45-12.94,22-25.86,22.96
		c0.7,0.05,1.4,0.08,2.11,0.08c13.9,0.02,25.48-9.89,28.04-23.04C69.29,50.6,68.51,49.68,67.49,49.68L67.49,49.68z"/>
	<path class="st2" d="M57.95,46.29c-0.01,0-0.01,0-0.01,0c-1.07,0.06-1.98-0.76-2.04-1.82c-0.13-2.4-0.92-4.72-2.28-6.69
		c-0.61-0.88-0.38-2.09,0.5-2.69c0.88-0.61,2.09-0.38,2.69,0.5c1.76,2.56,2.78,5.55,2.96,8.67C59.82,45.32,59.01,46.23,57.95,46.29
		L57.95,46.29z"/>
	<path class="st3" d="M63.96,38.22c-0.72-0.09-1.36-0.57-1.61-1.31c-0.28-0.82-0.59-1.64-0.95-2.43c-0.44-0.98,0-2.12,0.97-2.56
		c0.98-0.44,2.12,0,2.56,0.97c0.41,0.9,0.77,1.84,1.09,2.78c0.34,1.01-0.21,2.11-1.22,2.45C64.52,38.22,64.23,38.25,63.96,38.22
		L63.96,38.22L63.96,38.22z"/>
	<path class="st1" d="M59.76,44.25c-0.17-3.11-1.2-6.11-2.96-8.67c-0.61-0.88-1.81-1.1-2.69-0.5c-0.36,0.24-0.6,0.59-0.73,0.97
		c0.65-0.03,1.29,0.26,1.69,0.83c1.76,2.56,2.78,5.55,2.96,8.67c0.01,0.26-0.02,0.51-0.1,0.74c0,0,0.01,0,0.01,0
		c0.01,0,0.01,0,0.01,0C59.01,46.23,59.82,45.32,59.76,44.25L59.76,44.25L59.76,44.25z"/>
	<path class="st1" d="M66.02,35.68c-0.32-0.94-0.68-1.87-1.09-2.78c-0.44-0.98-1.58-1.41-2.56-0.97c-0.43,0.19-0.75,0.52-0.94,0.91
		c0.68,0.05,1.32,0.47,1.62,1.14c0.41,0.9,0.77,1.84,1.09,2.78c0.17,0.5,0.12,1.03-0.1,1.47c0.25,0.02,0.51-0.01,0.76-0.09
		C65.82,37.79,66.36,36.69,66.02,35.68L66.02,35.68L66.02,35.68z"/>
	<path class="st1" d="M56.66,20.98L43.01,10.87c-0.93-0.5-1.92-0.42-2.7,0.01c-0.2,0.12-0.43,0.24-0.79,0.64h0
		c-0.31,0.36-0.54,0.79-0.64,1.27c0.01,0.02,0.01,0.02,0.01,0.02s0.7-0.62,2.21-0.06c0.05,0.02,0.1,0.04,0.15,0.05l11.06,8.19
		c1.12,0.89,2.06,2.09,2.05,3.45c0,1.34-0.9,2.48-2.05,3.42l-11.21,8.3l0,0c-1.47,0.54-2.17-0.03-2.21-0.06
		c0.12,0.53,0.4,1.01,0.78,1.39c0.28,0.22,0.06,0.14,0.69,0.51c0.77,0.41,1.74,0.47,2.65-0.02l13.65-10.11
		c1.16-0.94,2.05-2.07,2.05-3.42C58.72,23.07,57.78,21.87,56.66,20.98L56.66,20.98z"/>
	<text transform="matrix(1 0 0 1 100.7276 58.5191)" class="st4 st5 st6">Chargezen</text>
</g>
</svg>
