<svg xmlns="http://www.w3.org/2000/svg" width="93.83" height="18.751" viewBox="0 0 93.83 18.751"><g transform="translate(-147.17 -47.624)"><g transform="translate(123.823 4.64)"><path d="M30.846,68.527c.21-.038.4.078.608.076a4.556,4.556,0,0,0,2.85-.945,4.5,4.5,0,0,0,1.4-1.861.724.724,0,0,1,.759-.537c.429.014.857,0,1.283.006.168,0,.276-.021.266-.222a.178.178,0,0,1,.1-.178.242.242,0,0,1,.011.092c-.048.167-.048.286.154.374a.422.422,0,0,1,.249.443,4.057,4.057,0,0,1-.256.985,8.625,8.625,0,0,1-.732,1.634,13.133,13.133,0,0,1-.841,1.185c-.275.37-.66.628-.966.968a2.867,2.867,0,0,1-.608.476,8.085,8.085,0,0,1-1.644.876c-.39.135-.782.26-1.177.379a4.383,4.383,0,0,1-.615.116l.011.073h.78c-.017.085-.085.082-.149.082a7.871,7.871,0,0,1-1.117-.005,11.553,11.553,0,0,1-2.557-.572,8.206,8.206,0,0,1-2.985-1.95,8.324,8.324,0,0,1-2.019-3.462,8.778,8.778,0,0,1-.3-2.823,6.534,6.534,0,0,1,.137-1.286,9.06,9.06,0,0,1,.6-1.751,8.244,8.244,0,0,1,2.055-2.745,7.818,7.818,0,0,1,2.012-1.31,7.27,7.27,0,0,1,2.344-.66c.212-.017.416-.09.634-.091.169,0,.085-.124.068-.209a5.837,5.837,0,0,1-.252-1.136c0-.072-.038-.167.083-.191.048.179.171.033.255.05a1.759,1.759,0,0,1,.7.353c.524.381,1.034.776,1.559,1.153.269.191.535.386.8.58a3.912,3.912,0,0,1,.857.723,1.086,1.086,0,0,1,.261.638c.012.553-.384.838-.75,1.129-.42.333-.867.636-1.3.953-.53.387-1.038.8-1.577,1.179a.914.914,0,0,1-.632.207.616.616,0,0,0-.182.042c-.169-.126-.1-.318-.058-.444.1-.278.129-.572.242-.846a.723.723,0,0,0,.016-.233,1.349,1.349,0,0,0,.23-.661c.048-.269-.036-.341-.307-.344a4.9,4.9,0,0,0-1.081.171,5.034,5.034,0,0,0-.894.3,5.541,5.541,0,0,0-.814.509,4.262,4.262,0,0,0-1.1,1.106,5.081,5.081,0,0,0-.7,1.334,6.311,6.311,0,0,0-.368,1.628,4.427,4.427,0,0,0,.211,1.655,4.194,4.194,0,0,0,1.1,1.874,3.6,3.6,0,0,0,1.491.934,5.392,5.392,0,0,0,1.7.252C30.758,68.6,30.828,68.615,30.846,68.527Z" transform="translate(0 -10.834)" fill="#41a0fe"/><path d="M87.556,158.093c-.019.088-.089.074-.151.077a5.392,5.392,0,0,1-1.7-.252,3.6,3.6,0,0,1-1.491-.934,4.167,4.167,0,0,1-1.1-1.874,4.424,4.424,0,0,1-.211-1.655,6.31,6.31,0,0,1,.368-1.628,5.08,5.08,0,0,1,.7-1.334,4.262,4.262,0,0,1,1.1-1.106,5.542,5.542,0,0,1,.814-.509,5.034,5.034,0,0,1,.893-.3,4.841,4.841,0,0,1,1.081-.171c.271,0,.355.075.307.344a1.368,1.368,0,0,1-.23.661,4.39,4.39,0,0,0-3.531,2.473,4.328,4.328,0,0,0-.4,2.154,4.122,4.122,0,0,0,1.616,3.147,3.867,3.867,0,0,0,1.643.81c.036.1.087.152.194.086Z" transform="translate(-56.71 -100.4)" fill="#066af4"/><path d="M199.2,250.2h-.779l-.011-.073a4.381,4.381,0,0,0,.615-.116c.395-.119.786-.243,1.177-.379a7.955,7.955,0,0,0,1.644-.876,2.837,2.837,0,0,0,.608-.476c.306-.34.691-.6.966-.968a13.063,13.063,0,0,0,.841-1.185,8.624,8.624,0,0,0,.732-1.633,4.075,4.075,0,0,0,.256-.985.422.422,0,0,0-.249-.443c-.2-.09-.2-.207-.154-.374a.241.241,0,0,0-.011-.092c.022-.4-.022-.807.04-1.209.072-.006.087-.048.072-.112a.563.563,0,0,1,.672-.266.728.728,0,0,1,.418.619c.038.367-.091.718-.086,1.082,0,.128.013.2.165.252.418.152.464.321.365.783a7.894,7.894,0,0,1-.827,2.2,8.427,8.427,0,0,1-2.832,3.024,8.591,8.591,0,0,1-2.191.985A4.154,4.154,0,0,1,199.2,250.2Z" transform="translate(-166.723 -188.571)" fill="#066af4"/><path d="M184.69,50.535a.6.6,0,0,1,.182-.042.914.914,0,0,0,.632-.207c.539-.376,1.048-.792,1.577-1.179.434-.317.88-.619,1.3-.953.366-.291.762-.576.75-1.129a1.087,1.087,0,0,0-.261-.638,4,4,0,0,0-.857-.723c-.267-.193-.533-.388-.8-.58-.524-.376-1.037-.772-1.559-1.153a1.747,1.747,0,0,0-.7-.353c-.085-.017-.206.129-.255-.05a.786.786,0,0,1,1.225-.388c.707.508,1.4,1.032,2.1,1.549.588.434,1.179.864,1.765,1.3a1.621,1.621,0,0,1,.647.884,1,1,0,0,1-.344.94,9.96,9.96,0,0,1-1.26.99q-1.256.957-2.533,1.888a2.993,2.993,0,0,1-.579.371A.786.786,0,0,1,184.69,50.535Z" transform="translate(-153.657)" fill="#066af4"/><path d="M273.846,191.282a.54.54,0,0,1,.929.01,4.184,4.184,0,0,1,.7,1.511,5.1,5.1,0,0,1,.174,1.018.571.571,0,0,1-.552.591,4.236,4.236,0,0,0-.464-2.091c-.161-.343-.3-.73-.715-.883C273.842,191.409,273.843,191.347,273.846,191.282Z" transform="translate(-238.564 -140.986)" fill="#0e6ff4"/><path d="M271.88,196.48c0,.065,0,.127.074.156.411.153.552.54.715.883a4.252,4.252,0,0,1,.464,2.091.578.578,0,0,1-.627-.643,3.6,3.6,0,0,0-.649-1.854A.613.613,0,0,1,271.88,196.48Z" transform="translate(-236.598 -146.184)" fill="#9ed8f3"/><path d="M322.838,173.328a.579.579,0,0,1,1.011.238c.08.186.157.371.226.562a.587.587,0,0,1-.235.83c-.119-.018-.311.08-.275-.181a1.086,1.086,0,0,0-.14-.585c-.125-.286-.191-.619-.548-.738C322.822,173.434,322.841,173.373,322.838,173.328Z" transform="translate(-285.223 -123.937)" fill="#0e6ff4"/><path d="M320.851,177.48c0,.048-.016.106.04.125.356.118.423.454.548.738a1.086,1.086,0,0,1,.14.585c-.036.261.156.162.275.181-.08.153-.193.15-.333.085a.8.8,0,0,1-.526-.561,2.855,2.855,0,0,1-.238-.973C320.763,177.586,320.733,177.494,320.851,177.48Z" transform="translate(-283.236 -128.089)" fill="#c1e3fa"/><path d="M174.984,349.645c-.107.066-.158.007-.194-.086A.144.144,0,0,1,174.984,349.645Z" transform="translate(-144.228 -291.962)" fill="#41a0fe"/><path d="M334.057,247.17c.014.062,0,.106-.072.112C333.963,247.215,334.012,247.193,334.057,247.17Z" transform="translate(-295.834 -194.459)" fill="#41a0fe"/></g><text transform="translate(167 62)" fill="#5a5a5a" font-size="14" font-family="Helvetica-Bold, Helvetica" font-weight="700"><tspan x="0" y="0">ChargeZen</tspan></text></g></svg>