<svg width="150" height="150" viewBox="0 0 150 150" fill="none" xmlns="http://www.w3.org/2000/svg">
<path d="M141.211 97.4402V13.1836C141.211 5.91416 135.297 0 128.027 0H31.0547C23.7853 0 17.8711 5.91416 17.8711 13.1836V17.8711H13.1836C5.91416 17.8711 0 23.7853 0 31.0547C0 38.3241 5.91416 44.2383 13.1836 44.2383H17.8711V61.8164H13.1836C5.91416 61.8164 0 67.7306 0 75C0 82.2694 5.91416 88.1836 13.1836 88.1836H17.8711V105.762H13.1836C5.91416 105.762 0 111.676 0 118.945C0 126.215 5.91416 132.129 13.1836 132.129H17.8711V136.523C17.8711 140.026 19.2179 143.363 21.6633 145.922C24.1775 148.552 27.513 150 31.0547 150H119.238C136.2 150 150 136.069 150 118.945C150 110.583 146.644 102.991 141.211 97.4402ZM13.1836 35.4492C10.7604 35.4492 8.78906 33.4778 8.78906 31.0547C8.78906 28.6315 10.7604 26.6602 13.1836 26.6602H22.2656C24.6888 26.6602 26.6602 28.6315 26.6602 31.0547C26.6602 33.4778 24.6888 35.4492 22.2656 35.4492H13.1836ZM13.1836 79.3945C10.7604 79.3945 8.78906 77.4231 8.78906 75C8.78906 72.5769 10.7604 70.6055 13.1836 70.6055H22.2656C24.6888 70.6055 26.6602 72.5769 26.6602 75C26.6602 77.4231 24.6888 79.3945 22.2656 79.3945H13.1836ZM22.2656 123.34H13.1836C10.7604 123.34 8.78906 121.368 8.78906 118.945C8.78906 116.522 10.7604 114.551 13.1836 114.551H22.2656C24.6888 114.551 26.6602 116.522 26.6602 118.945C26.6602 121.368 24.6888 123.34 22.2656 123.34ZM31.0547 141.211C28.7139 141.211 26.6602 139.02 26.6602 136.523V131.373C31.7751 129.559 35.4492 124.674 35.4492 118.945C35.4492 113.216 31.7751 108.332 26.6602 106.518V87.4277C31.7751 85.6137 35.4492 80.729 35.4492 75C35.4492 69.271 31.7751 64.3863 26.6602 62.5723V43.4824C31.7751 41.6684 35.4492 36.7837 35.4492 31.0547C35.4492 25.3257 31.7751 20.441 26.6602 18.627V13.1836C26.6602 10.7604 28.6315 8.78906 31.0547 8.78906H128.027C130.45 8.78906 132.422 10.7604 132.422 13.1836V91.1558C128.424 89.2515 123.954 88.1836 119.238 88.1836C102.276 88.1836 88.4766 101.983 88.4766 118.945C88.4766 127.67 92.0604 135.564 97.8182 141.211H31.0547ZM119.238 141.211C107.123 141.211 97.2656 131.223 97.2656 118.945C97.2656 106.83 107.123 96.9727 119.238 96.9727C131.354 96.9727 141.211 106.83 141.211 118.945C141.211 131.223 131.354 141.211 119.238 141.211Z" fill="#007EFF"/>
<path d="M119.238 35.4492H92.8711C90.4441 35.4492 88.4766 37.4168 88.4766 39.8438C88.4766 42.2707 90.4441 44.2383 92.8711 44.2383H119.238C121.665 44.2383 123.633 42.2707 123.633 39.8438C123.633 37.4168 121.665 35.4492 119.238 35.4492Z" fill="#4D506A"/>
<path d="M119.238 70.6055H92.8711C90.4441 70.6055 88.4766 72.573 88.4766 75C88.4766 77.427 90.4441 79.3945 92.8711 79.3945H119.238C121.665 79.3945 123.633 77.427 123.633 75C123.633 72.573 121.665 70.6055 119.238 70.6055Z" fill="#4D506A"/>
<path d="M128.027 114.551H123.633V110.156C123.633 107.729 121.665 105.762 119.238 105.762C116.811 105.762 114.844 107.729 114.844 110.156V118.945C114.844 121.372 116.811 123.34 119.238 123.34H128.027C130.454 123.34 132.422 121.372 132.422 118.945C132.422 116.518 130.454 114.551 128.027 114.551Z" fill="#4D506A"/>
<path d="M78.107 27.9473C76.3911 26.2311 73.6085 26.2311 71.8925 27.9476L57.4216 42.4182L50.5044 35.5009C48.7884 33.7847 46.0058 33.7847 44.2896 35.5009C42.5734 37.2171 42.5734 39.9994 44.2896 41.7156L54.3144 51.7404C55.1722 52.5986 56.2969 53.0275 57.4216 53.0275C58.5463 53.0275 59.671 52.5986 60.5289 51.7402L78.107 34.162C79.8232 32.4458 79.8232 29.6635 78.107 27.9473Z" fill="#4D506A"/>
<path d="M78.107 63.1035C76.3911 61.3873 73.6085 61.3873 71.8925 63.1038L57.4216 77.5744L50.5044 70.6571C48.7884 68.9409 46.0058 68.9409 44.2896 70.6571C42.5734 72.3733 42.5734 75.1557 44.2896 76.8719L54.3144 86.8967C55.1722 87.7548 56.2969 88.1837 57.4216 88.1837C58.5463 88.1837 59.671 87.7548 60.5289 86.8964L78.107 69.3183C79.8232 67.6021 79.8232 64.8197 78.107 63.1035Z" fill="#4D506A"/>
<path d="M78.107 98.2598C76.3911 96.5436 73.6085 96.5436 71.8925 98.2601L57.4216 112.731L50.5044 105.813C48.7884 104.097 46.0058 104.097 44.2896 105.813C42.5734 107.53 42.5734 110.312 44.2896 112.028L54.3144 122.053C55.1722 122.911 56.2969 123.34 57.4216 123.34C58.5463 123.34 59.671 122.911 60.5289 122.053L78.107 104.475C79.8232 102.758 79.8232 99.976 78.107 98.2598Z" fill="#4D506A"/>
</svg>
