<svg width="35" height="35" viewBox="0 0 35 35" fill="none" xmlns="http://www.w3.org/2000/svg">
<circle cx="17.5" cy="17.5" r="17.5" fill="#2C6ECB"/>
<g clip-path="url(#clip0_4:1774)">
<path d="M9.79688 18.7969H8.58594C8.26207 18.7969 8 19.0589 8 19.3828V26.4141C8 26.7379 8.26207 27 8.58594 27H9.79688C10.7662 27 11.5547 26.2115 11.5547 25.2422V20.5547C11.5547 19.5854 10.7662 18.7969 9.79688 18.7969Z" fill="white"/>
<path d="M21.5547 7C18.0039 7 15.1094 9.89449 15.1094 13.4453C15.1094 14.9922 15.6601 16.4101 16.5742 17.5234C17.3125 17.7343 18.0039 18.1093 18.5898 18.625C18.7 18.7077 18.7622 18.7067 18.8828 18.7188H20.9688C21.7773 18.7188 22.4922 19.1171 22.9024 19.75C25.8086 19.1289 28 16.5391 28 13.4453C28 9.89449 25.1055 7 21.5547 7ZM22.1523 16.2695H22.1406V16.9609C22.1406 17.289 21.8829 17.5469 21.5547 17.5469C21.2265 17.5469 20.9688 17.289 20.9688 16.9609V16.2695C20.582 16.1406 20.2187 15.8945 19.9024 15.5078C19.6914 15.2617 19.7266 14.8984 19.9727 14.6875C20.2188 14.4766 20.5938 14.5117 20.793 14.7578C21.1094 15.1328 21.4609 15.2734 21.7539 15.1679C21.9883 15.0859 22.1406 14.8632 22.1406 14.6172C22.1406 14.289 21.8829 14.0312 21.5547 14.0312C20.582 14.0312 19.7969 13.2461 19.7969 12.2734C19.7969 11.5703 20.2188 10.9257 20.875 10.6562C20.8985 10.6445 20.9336 10.6445 20.9688 10.6328V9.92969C20.9688 9.60152 21.2265 9.34375 21.5547 9.34375C21.8829 9.34375 22.1406 9.60152 22.1406 9.92969V10.6328C22.4453 10.7383 22.7383 10.8906 23.0078 11.1484C23.2422 11.3711 23.2422 11.7461 23.0195 11.9805C22.7969 12.2149 22.4219 12.2148 22.1875 11.9922C21.9062 11.7226 21.5899 11.6172 21.332 11.7343C21.1094 11.8281 20.9688 12.0391 20.9688 12.2734C20.9688 12.6015 21.2265 12.8594 21.5547 12.8594C22.5273 12.8594 23.3125 13.6445 23.3125 14.6172C23.3125 15.3555 22.8437 16.0117 22.1523 16.2695Z" fill="white"/>
<path d="M27.8242 19.9336C27.7539 19.8164 27.6602 19.7226 27.5547 19.6406C27.1232 19.2631 26.3963 19.2988 25.9727 19.7578L23.3125 22.8281L23.2305 22.9218C22.9024 23.2851 22.4336 23.4843 21.9414 23.4843H17.3555C17.0273 23.4843 16.7695 23.2265 16.7695 22.8984C16.7695 22.5702 17.0273 22.3125 17.3555 22.3125H20.9688C21.6133 22.3125 22.1406 21.7851 22.1406 21.1406V21.1289C22.1289 20.4843 21.6133 19.9687 20.9688 19.9687H18.8086C18.4572 19.9687 18.0806 19.8397 17.7773 19.582C16.3477 18.3281 14.2617 18.246 12.7266 19.3125V26.5195C13.8867 26.8359 15.082 27 16.289 27H21.5547C22.8437 27 24.0625 26.3906 24.8359 25.3593L27.6485 21.6093C28.0588 21.0707 28.0898 20.332 27.8242 19.9336Z" fill="white"/>
</g>
<defs>
<clipPath id="clip0_4:1774">
<rect width="20" height="20" fill="white" transform="translate(8 7)"/>
</clipPath>
</defs>
</svg>
