<svg xmlns="http://www.w3.org/2000/svg" width="62" height="13.666" viewBox="0 0 62 13.666"><g transform="translate(-23.347 -42.984)"><path d="M27.465,64.685c.115-.027.219.057.334.055a2.13,2.13,0,0,0,1.565-.688,3.359,3.359,0,0,0,.77-1.356c.081-.254.189-.4.417-.391s.471,0,.7,0c.092,0,.151-.016.146-.162a.144.144,0,0,1,.052-.13.23.23,0,0,1,.006.067c-.026.122-.026.208.085.273a.332.332,0,0,1,.137.323,3.758,3.758,0,0,1-.14.718,7.447,7.447,0,0,1-.4,1.19c-.136.308-.3.581-.462.864s-.363.458-.531.705a1.738,1.738,0,0,1-.334.347,4.228,4.228,0,0,1-.9.638c-.214.1-.429.189-.646.276a1.887,1.887,0,0,1-.338.085l.006.053h.428c-.009.062-.047.06-.082.06a3.261,3.261,0,0,1-.613,0,5.053,5.053,0,0,1-1.4-.417,4.625,4.625,0,0,1-1.639-1.421,6.73,6.73,0,0,1-1.109-2.523,8.406,8.406,0,0,1-.163-2.057,6.267,6.267,0,0,1,.075-.937,8.162,8.162,0,0,1,.33-1.276,6.173,6.173,0,0,1,1.129-2,4.4,4.4,0,0,1,1.105-.955,3.277,3.277,0,0,1,1.287-.481c.117-.012.229-.065.348-.066.093,0,.047-.09.037-.152a5.469,5.469,0,0,1-.138-.828c0-.053-.021-.122.046-.139.026.131.094.024.14.036a.905.905,0,0,1,.385.257c.288.278.568.566.856.84.148.139.294.282.44.423a2.444,2.444,0,0,1,.471.527.944.944,0,0,1,.143.465,1.089,1.089,0,0,1-.412.823c-.231.243-.476.463-.714.694-.291.282-.57.585-.866.859a.428.428,0,0,1-.347.151c-.032,0-.067.02-.1.031-.093-.092-.056-.232-.032-.323.054-.2.071-.417.133-.616a.7.7,0,0,0,.009-.17,1.206,1.206,0,0,0,.126-.482c.026-.2-.02-.248-.168-.251a2.087,2.087,0,0,0-.594.125,2.332,2.332,0,0,0-.491.219,3.066,3.066,0,0,0-.447.371,2.862,2.862,0,0,0-.605.806,4.233,4.233,0,0,0-.385.972,5.9,5.9,0,0,0-.2,1.186,4.222,4.222,0,0,0,.116,1.206,3.384,3.384,0,0,0,.6,1.365,2,2,0,0,0,.819.68,2.3,2.3,0,0,0,.934.183C27.417,64.739,27.455,64.749,27.465,64.685Z" transform="translate(0 -10.981)" fill="#fefefe"/><path d="M85.454,155.466c-.01.064-.049.054-.083.056a2.3,2.3,0,0,1-.934-.183,2,2,0,0,1-.819-.68,3.363,3.363,0,0,1-.6-1.365,4.218,4.218,0,0,1-.116-1.206,5.9,5.9,0,0,1,.2-1.186,4.232,4.232,0,0,1,.385-.972,2.862,2.862,0,0,1,.605-.806,3.066,3.066,0,0,1,.447-.371,2.335,2.335,0,0,1,.49-.22,2.065,2.065,0,0,1,.594-.125c.149,0,.195.055.168.251a1.224,1.224,0,0,1-.126.482,2.549,2.549,0,0,0-1.939,1.8,4.068,4.068,0,0,0-.219,1.57A3.4,3.4,0,0,0,84.4,154.8a1.978,1.978,0,0,0,.9.59c.02.069.048.111.106.063Z" transform="translate(-57.989 -101.762)" fill="#003478"/><path d="M198.844,247.7h-.428l-.006-.053a1.884,1.884,0,0,0,.338-.085c.217-.087.432-.177.646-.276a4.159,4.159,0,0,0,.9-.638,1.718,1.718,0,0,0,.334-.347c.168-.248.379-.436.531-.705s.325-.555.462-.864a7.449,7.449,0,0,0,.4-1.19,3.772,3.772,0,0,0,.14-.718.332.332,0,0,0-.137-.323c-.112-.065-.111-.151-.085-.273a.23.23,0,0,0-.006-.067c.012-.294-.012-.588.022-.881.04,0,.048-.035.04-.082.092-.185.218-.251.369-.194a.55.55,0,0,1,.23.451c.021.268-.05.524-.047.789,0,.093.007.143.091.184.23.111.255.234.2.571a7.016,7.016,0,0,1-.454,1.606,5.794,5.794,0,0,1-1.555,2.2,4.265,4.265,0,0,1-1.2.718A1.782,1.782,0,0,1,198.844,247.7Z" transform="translate(-170.791 -191.057)" fill="#003478"/><path d="M184.69,48.487c.033-.011.068-.035.1-.031a.428.428,0,0,0,.347-.151c.3-.274.576-.577.866-.859.238-.231.483-.451.714-.694a1.089,1.089,0,0,0,.412-.823.945.945,0,0,0-.143-.465,2.5,2.5,0,0,0-.471-.527c-.146-.141-.293-.283-.44-.423-.288-.274-.569-.563-.856-.84a.9.9,0,0,0-.385-.257c-.047-.012-.113.094-.14-.036.069-.365.423-.521.673-.283.388.37.77.752,1.154,1.129.323.316.647.63.969.948a1.217,1.217,0,0,1,.356.644.869.869,0,0,1-.189.685,6.044,6.044,0,0,1-.692.722q-.69.7-1.391,1.376a1.673,1.673,0,0,1-.318.27C185.035,49,184.745,48.8,184.69,48.487Z" transform="translate(-157.122)" fill="#003478"/><path d="M273.845,191.212c.157-.269.374-.237.51.007a3.579,3.579,0,0,1,.385,1.1,4.833,4.833,0,0,1,.1.742.386.386,0,0,1-.3.431,3.945,3.945,0,0,0-.255-1.524c-.089-.25-.166-.532-.392-.643C273.843,191.3,273.844,191.259,273.845,191.212Z" transform="translate(-243.944 -142.899)" fill="#003478"/><path d="M271.835,196.48c0,.047,0,.092.041.114.225.111.3.393.392.643a3.96,3.96,0,0,1,.255,1.524c-.209.009-.338-.159-.344-.469a3.216,3.216,0,0,0-.357-1.351A.574.574,0,0,1,271.835,196.48Z" transform="translate(-241.934 -148.167)" fill="#fefefe"/><path d="M322.838,173.271c.222-.253.44-.184.555.174.044.135.086.27.124.409a.5.5,0,0,1-.129.6c-.065-.013-.171.058-.151-.132a1.007,1.007,0,0,0-.077-.426c-.069-.208-.1-.451-.3-.538C322.829,173.349,322.84,173.3,322.838,173.271Z" transform="translate(-291.655 -125.618)" fill="#003478"/><path d="M320.806,177.48c0,.035-.009.077.022.091.2.086.232.331.3.538a1.006,1.006,0,0,1,.077.426c-.02.19.086.118.151.132-.044.111-.106.109-.183.062a.545.545,0,0,1-.289-.409,2.651,2.651,0,0,1-.131-.709C320.758,177.557,320.741,177.49,320.806,177.48Z" transform="translate(-289.624 -129.827)" fill="#fefefe"/><path d="M174.9,349.619c-.059.048-.087.005-.106-.063C174.838,349.541,174.877,349.552,174.9,349.619Z" transform="translate(-147.481 -295.923)" fill="#003478"/><text transform="translate(34.347 53.131)" fill="#fefefe" font-size="10" font-family="Helvetica"><tspan x="0" y="0">ChargeZen</tspan></text></g></svg>