<svg width="248" height="250" viewBox="0 0 248 250" fill="none" xmlns="http://www.w3.org/2000/svg">
<path d="M234.126 119.422C241.494 119.422 247.489 113.427 247.489 106.058V76.3704C247.575 69.5964 241.533 62.7642 234.126 63.0069H218.274V47.0504C225.227 42.459 229.825 34.5789 229.825 25.6417C229.825 11.5032 218.322 0 204.183 0C190.044 0 178.54 11.5032 178.54 25.6422C178.54 34.5794 183.139 42.459 190.091 47.0509V63.0073H57.9072V47.0504C64.8595 42.459 69.4587 34.5789 69.4587 25.6417C69.4587 23.2281 69.1228 20.8369 68.4601 18.5356C67.9006 16.5927 65.8722 15.4681 63.9278 16.0297C61.9844 16.5893 60.8623 18.6186 61.4219 20.562C61.8946 22.2041 62.1343 23.9132 62.1343 25.6412C62.1343 35.7421 53.9168 43.9595 43.816 43.9595C33.7152 43.9595 25.4982 35.7425 25.4982 25.6422C25.4982 15.5419 33.7157 7.32439 43.8165 7.32439C46.3527 7.32439 48.8059 7.83173 51.1082 8.83175C52.9637 9.63841 55.1205 8.78732 55.9262 6.9318C56.7318 5.07678 55.8817 2.9195 54.0262 2.11382C50.7976 0.710954 47.3625 0 43.8165 0C29.677 0 18.1738 11.5032 18.1738 25.6422C18.1738 34.5794 22.7725 42.4595 29.7249 47.0509V63.0073H13.8739C6.50507 63.0073 0.510301 69.0021 0.510301 76.3709V106.059C0.43901 112.796 6.42157 119.679 13.8739 119.422H29.7253V142.51H13.8739C6.50507 142.51 0.510301 148.504 0.510301 155.873V185.561C0.377974 192.34 6.45087 199.102 13.8744 198.926H29.7253V226.631H24.7955C18.3525 226.631 13.1107 231.873 13.1107 238.316C13.1107 244.759 18.3525 250.001 24.7955 250.001H62.8374C69.2805 250.001 74.5218 244.759 74.5218 238.316C74.5218 231.873 69.2805 226.631 62.8374 226.631H57.9076V198.925L190.092 198.926V226.631H185.163C178.72 226.631 173.478 231.873 173.478 238.316C173.478 244.759 178.719 250.001 185.163 250.001H198.912C200.935 250.001 202.575 248.361 202.575 246.338C202.575 244.315 200.935 242.676 198.912 242.676H185.163C182.758 242.676 180.802 240.72 180.802 238.316C180.802 235.912 182.758 233.956 185.163 233.956H223.204C225.608 233.956 227.564 235.912 227.564 238.316C227.564 240.72 225.608 242.676 223.204 242.676H217.284C215.261 242.676 213.622 244.315 213.622 246.338C213.622 248.361 215.261 250.001 217.284 250.001H223.204C229.647 250.001 234.889 244.759 234.889 238.316C234.889 231.873 229.648 226.631 223.204 226.631H218.274V198.925H234.126C241.494 198.925 247.489 192.93 247.489 185.561V155.873C247.649 149.163 241.462 142.249 234.126 142.51H218.274V119.422H234.126ZM234.126 112.097H212.319L240.165 84.2515V106.058C240.165 109.388 237.456 112.097 234.126 112.097ZM234.679 149.862C236.591 150.036 238.644 151.297 239.783 153.777L201.959 191.6H170.708L212.474 149.835C213.274 149.863 233.808 149.782 234.679 149.862ZM129.099 191.6L170.866 149.834L202.115 149.835L160.35 191.6H129.099ZM87.4948 191.6L129.26 149.835H160.506L118.741 191.6H87.4948ZM109.816 142.51C107.794 142.51 106.154 144.149 106.154 146.172C106.154 148.195 107.794 149.834 109.816 149.834H118.903L77.1366 191.6H45.8859L87.6525 149.834H90.5417C92.5642 149.834 94.2039 148.195 94.2039 146.172C94.2039 144.149 92.5642 142.51 90.5417 142.51H57.9076V119.422H190.092V142.509H109.816V142.51ZM13.2108 191.562C11.3748 191.378 9.18287 190 8.218 187.658L46.0421 149.835H77.2929L35.5272 191.6C34.6957 191.561 14.1356 191.674 13.2108 191.562ZM13.3485 112.071C11.386 111.941 9.25758 110.548 8.218 108.157L46.0416 70.3337H77.2924L35.5307 112.095C34.7733 112.071 14.1713 112.141 13.3485 112.071ZM87.653 70.3312H118.904L77.1376 112.097H45.8869L87.653 70.3312ZM202.117 70.3312L160.35 112.097H129.1L170.867 70.3312H202.117ZM234.666 70.3586C236.592 70.53 238.638 71.7893 239.783 74.2752L201.963 112.095H170.712L212.474 70.3337C213.253 70.3596 233.818 70.2834 234.666 70.3586ZM87.4987 112.094L129.26 70.3332H160.506L118.745 112.094H87.4987ZM185.865 25.6422C185.865 15.5414 194.083 7.32439 204.183 7.32439C214.283 7.32439 222.501 15.5414 222.501 25.6422C222.501 35.743 214.284 43.9605 204.183 43.9605C194.082 43.9605 185.865 35.7425 185.865 25.6422ZM197.416 50.3718C199.574 50.9626 201.841 51.2844 204.183 51.2844C206.525 51.2844 208.793 50.9626 210.949 50.3718V63.0069H197.416V50.3718H197.416ZM37.0497 50.3718C39.207 50.9626 41.4742 51.2844 43.8165 51.2844C46.1588 51.2844 48.426 50.9626 50.5833 50.3718V63.0069H37.0497V50.3718ZM13.8739 70.3312H35.6854L7.8342 98.182V76.3704C7.83469 73.0403 10.5437 70.3312 13.8739 70.3312ZM37.0497 119.422H50.5833V142.509H37.0497V119.422ZM13.8739 149.834L35.6835 149.835L7.8342 177.684V155.873C7.83469 152.543 10.5437 149.834 13.8739 149.834ZM67.1974 238.316C67.1974 240.72 65.2413 242.676 62.8374 242.676H24.7955C22.3912 242.676 20.4351 240.72 20.4351 238.316C20.4351 235.912 22.3912 233.956 24.7955 233.956H62.8374C65.2413 233.956 67.1974 235.912 67.1974 238.316ZM37.0497 226.631V198.926H50.5833V226.631H37.0497ZM197.416 226.631V198.926H210.95V226.631H197.416ZM234.126 191.6H212.318L240.165 163.753V185.561C240.165 188.891 237.456 191.6 234.126 191.6ZM210.95 142.51H197.416V119.422H210.95V142.51Z" fill="#4D506A"/>
</svg>
