<svg width="110" height="87" viewBox="0 0 110 87" fill="none" xmlns="http://www.w3.org/2000/svg">
<path d="M23.746 43.5L45.3095 6.58569V80.4144L23.746 43.5Z" fill="#007EFF"/>
<path d="M110 43.5L88.4365 6.58569V80.4144L110 43.5Z" fill="#007EFF"/>
<path d="M45.3095 6.58569H88.4365V80.4144H45.3095V6.58569Z" fill="#007EFF"/>
<path d="M0 43.5L25.4921 0V87L0 43.5Z" fill="#003478"/>
<path d="M101.968 43.5L76.4762 0V87L101.968 43.5Z" fill="#003478"/>
<path d="M25.4921 0H76.4762V87H25.4921V0Z" fill="#003478"/>
<ellipse cx="13.9683" cy="23.2232" rx="13.9683" ry="13.8645" fill="#007EFF"/>
<path d="M37.5646 71.1562H76.2921V60.8848H51.6759L68.531 46.4893C72.7643 42.832 75.8218 38.7857 75.8218 31.7047C75.8218 20.6551 67.9822 15.1304 57.8691 15.1304C46.9721 15.1304 38.9758 20.6551 38.2702 32.0159L50.0296 32.8719C50.3431 28.9034 52.9302 25.8687 57.242 25.8687C60.8482 25.8687 64.0624 28.1253 64.0624 31.8603C64.0624 35.2063 61.3185 37.5407 59.1235 39.5639L37.5646 58.7838V71.1562Z" fill="white"/>
</svg>
