<svg width="19" height="32" viewBox="0 0 19 32" fill="none" xmlns="http://www.w3.org/2000/svg">
<path d="M10.5752 0.454403C9.89939 -0.151504 8.88011 -0.151442 8.20428 0.454434C6.84053 1.6769 4.37887 4.276 3.21076 7.94708C2.61531 9.81856 2.3925 12.2048 2.59949 14.4939C2.60205 14.5221 2.60504 14.55 2.60772 14.5782L0.4276 17.1233C0.0687634 17.5423 -0.0737879 18.0925 0.0364342 18.6329L0.862564 22.6828C0.94616 23.0926 1.22899 23.4273 1.61909 23.5781C2.00925 23.7289 2.44364 23.6715 2.78118 23.4245L5.08 21.7423C5.11166 21.788 5.14327 21.8337 5.1755 21.8789C5.50563 22.3416 6.04452 22.6178 6.61709 22.6177L12.1624 22.6178C12.6371 22.6178 13.0887 22.4279 13.4174 22.0993C13.485 22.0316 13.5475 21.9579 13.604 21.8789C13.6362 21.8337 13.6678 21.788 13.6995 21.7423L15.9983 23.4245C16.3359 23.6715 16.7703 23.729 17.1603 23.5782C17.3227 23.5154 17.4663 23.4209 17.5849 23.3024C17.7513 23.1359 17.8681 22.9221 17.9169 22.6828L18.743 18.6329C18.8533 18.0925 18.7107 17.5423 18.3518 17.1234L16.1717 14.5783C16.1744 14.5502 16.1774 14.5222 16.18 14.494C16.387 12.2048 16.1642 9.81859 15.5687 7.94711C14.4006 4.27588 11.9388 1.67687 10.5752 0.454403ZM17.4331 18.3657L16.6429 22.2397L14.4025 20.6002C15.0984 19.3248 15.6092 17.8856 15.9163 16.335L17.3366 17.993C17.4252 18.0964 17.4604 18.2323 17.4331 18.3657ZM12.1624 21.2809H6.61706C6.47554 21.2809 6.34342 21.2142 6.2637 21.1024C5.85322 20.5271 5.51209 19.9298 5.22863 19.3292L13.549 19.3292C13.2083 20.0502 12.8462 20.6392 12.5157 21.1024C12.4358 21.2143 12.3039 21.2809 12.1624 21.2809ZM1.44292 17.993L2.86311 16.335C3.17017 17.8857 3.68104 19.3249 4.37688 20.6003L2.13655 22.2398L1.34634 18.3657C1.31911 18.2322 1.35434 18.0964 1.44292 17.993ZM14.8486 14.3735C14.7219 15.774 14.4414 16.9758 14.0915 17.9924H4.6876C4.23241 16.6639 4.02268 15.3883 3.93092 14.3735C3.73934 12.2551 3.94119 10.0605 4.48471 8.35236C5.55671 4.98309 7.83451 2.58158 9.09667 1.44974C9.26374 1.29994 9.51576 1.29994 9.68286 1.44977C10.9451 2.58152 13.2228 4.98312 14.2948 8.35243C14.8383 10.0605 15.0401 12.2551 14.8486 14.3735Z" fill="#007EFF"/>
<path d="M11.7519 11.7569C12.3569 11.1518 12.7318 10.3162 12.7318 9.39488C12.7319 8.50217 12.3842 7.66293 11.753 7.03172C11.1218 6.40051 10.2825 6.05286 9.38981 6.05286C7.54695 6.05283 6.04776 7.55214 6.04779 9.39488C6.04776 10.2876 6.39541 11.1269 7.02662 11.7581C7.65783 12.3893 8.49713 12.7369 9.38981 12.7369C10.3113 12.7369 11.1467 12.3623 11.7519 11.7569ZM7.38455 9.39491C7.38451 8.84207 7.6094 8.34077 7.97249 7.97768C8.33561 7.61456 8.83691 7.38967 9.38975 7.3897C9.92536 7.3897 10.4289 7.5983 10.8076 7.97702C11.1863 8.35574 11.395 8.8593 11.395 9.39491C11.395 10.5006 10.4954 11.4001 9.38972 11.4001C8.85411 11.4001 8.35055 11.1916 7.97183 10.8129C7.59311 10.4341 7.38455 9.93052 7.38455 9.39491Z" fill="#007EFF"/>
<path d="M7.03409 28.177C7.15506 28.056 7.2299 27.8889 7.22983 27.7043L7.22983 24.618C7.22983 24.2489 6.93058 23.9496 6.56141 23.9496C6.19227 23.9496 5.89299 24.2489 5.89299 24.618L5.89302 27.7043C5.89302 28.0734 6.19227 28.3727 6.56144 28.3727C6.746 28.3727 6.91312 28.2979 7.03409 28.177Z" fill="#007EFF"/>
<path d="M9.38988 23.9497C9.02074 23.9497 8.72146 24.249 8.72146 24.6182L8.72149 30.5518C8.72149 30.921 9.02074 31.2202 9.38991 31.2202C9.5745 31.2202 9.74156 31.1454 9.86253 31.0244C9.9835 30.9035 10.0583 30.7364 10.0583 30.5518L10.0583 24.6182C10.0583 24.249 9.75905 23.9497 9.38988 23.9497Z" fill="#007EFF"/>
<path d="M11.5498 24.618L11.5498 27.7043C11.5498 28.0734 11.849 28.3727 12.2182 28.3727C12.4028 28.3727 12.5699 28.2979 12.6908 28.177C12.8118 28.056 12.8866 27.8889 12.8866 27.7043L12.8866 24.618C12.8866 24.2489 12.5873 23.9496 12.2181 23.9496C11.849 23.9496 11.5497 24.2489 11.5498 24.618Z" fill="#007EFF"/>
</svg>
