<svg width="25" height="25" viewBox="0 0 25 25" fill="none" xmlns="http://www.w3.org/2000/svg">
<path d="M20.9227 13.2883C20.9974 9.72681 18.1611 6.76855 14.6005 6.69322C11.0392 6.61799 8.08039 9.45399 8.00506 13.015C8.00395 13.075 8.00963 13.1304 8.01019 13.1905H8.00963C8.00963 13.2085 8.01186 13.2266 8.01186 13.2458C8.0142 13.4281 8.02178 13.6114 8.03983 13.7902C8.0483 13.8854 8.06412 13.9792 8.07694 14.0732C8.09187 14.1784 8.10469 14.2826 8.12508 14.3845C8.13188 14.4212 8.13467 14.458 8.1418 14.4937C8.14459 14.4937 8.14748 14.4937 8.15105 14.4937C8.22694 14.8502 8.3259 15.1975 8.45808 15.5304C8.45406 15.5304 8.44927 15.5304 8.44537 15.5304C8.62669 15.9945 8.86328 16.4308 9.14144 16.8354C9.15069 16.8354 9.15927 16.8354 9.16919 16.8354C9.78692 17.7199 10.6191 18.4431 11.5944 18.9287C11.5696 18.9287 11.544 18.9287 11.5192 18.9287C12.2951 19.3282 13.1609 19.5749 14.081 19.6292C14.0823 19.6178 14.081 19.6032 14.081 19.5913C14.1636 19.5964 14.2441 19.6072 14.3278 19.6093C15.1031 19.6247 15.8455 19.4979 16.5405 19.2602V19.2988C17.0996 19.1086 17.6258 18.8461 18.1046 18.5165V18.4759C19.7647 17.3407 20.8763 15.4506 20.9227 13.2883ZM14.3604 17.9882C12.0826 17.9406 10.2064 16.3153 9.74034 14.182C9.72529 14.1095 9.70757 14.0382 9.69587 13.9658C9.68317 13.8878 9.67436 13.8085 9.66511 13.7304C9.64673 13.5618 9.63146 13.3921 9.63079 13.2176C9.63023 13.161 9.62455 13.1068 9.62577 13.049C9.63034 12.8238 9.65575 12.603 9.69063 12.3857C9.69286 12.3857 9.69487 12.3857 9.6971 12.3857C9.77466 11.9254 9.91608 11.4879 10.1137 11.0816C10.1074 11.0816 10.1003 11.0816 10.0942 11.0816C10.8873 9.41388 12.602 8.27303 14.5643 8.3146C15.2717 8.32965 15.9382 8.50027 16.5381 8.78634V8.82479C17.1391 9.11198 17.67 9.51941 18.1035 10.0156V9.97722C18.868 10.8541 19.3252 12.002 19.2991 13.2538C19.243 15.9209 17.027 18.0452 14.3604 17.9882ZM25 22.9698L23.5417 24.3676L18.6851 19.3011L20.1429 17.9033L25 22.9698ZM7.39469 6.92725C6.27056 6.92725 5.14632 6.92725 4.02164 6.92725C3.21101 6.92725 3.21101 5.62281 4.02164 5.62281C5.14632 5.62281 6.27056 5.62281 7.39469 5.62281C8.20588 5.62281 8.20588 6.92725 7.39469 6.92725ZM4.02164 9.03608C3.21101 9.03608 3.21101 7.73164 4.02164 7.73164C5.14632 7.73164 6.27056 7.73164 7.39469 7.73164C8.20532 7.73164 8.20532 9.03608 7.39469 9.03608C6.27056 9.03608 5.14688 9.03608 4.02164 9.03608ZM18.1045 10.9912V15.3792C17.7209 16.0109 17.1809 16.5349 16.5398 16.8982V9.47517C17.1843 9.8368 17.7224 10.362 18.1045 10.9912ZM16.5398 19.9121C17.0938 19.739 17.6167 19.4918 18.1045 19.1936V24.1417H0V0.631836H14.7407L18.1045 3.89377V7.17376C17.6121 6.87465 17.0881 6.63582 16.5398 6.46665V4.68112H13.9343V2.19683H1.56499V22.5764H16.5397V19.9121H16.5398ZM13.4799 16.8354C13.2694 16.8354 12.8393 16.8354 12.2718 16.8354C11.7259 16.5067 11.2594 16.0601 10.9094 15.5304C12.1308 15.5304 13.1223 15.5304 13.4805 15.5304C14.2902 15.531 14.2902 16.8354 13.4799 16.8354ZM3.84534 15.531C4.33402 15.531 6.00455 15.531 7.82931 15.531C7.98923 15.986 8.19485 16.4229 8.4476 16.836C6.39393 16.836 4.38896 16.836 3.84534 16.836C3.03526 16.8354 3.03526 15.531 3.84534 15.531ZM13.4799 14.4948C13.0758 14.4948 11.8574 14.4948 10.4132 14.4948C10.2799 14.0829 10.2075 13.6448 10.2075 13.1898C11.7409 13.1898 13.0554 13.1898 13.4792 13.1898C14.2902 13.1898 14.2902 14.4948 13.4799 14.4948ZM3.84534 13.1898C4.29802 13.1898 5.76461 13.1898 7.4289 13.1898C7.42834 13.6318 7.46657 14.0687 7.54658 14.4948C5.83415 14.4948 4.30816 14.4948 3.84534 14.4948C3.03526 14.4948 3.03526 13.1898 3.84534 13.1898ZM13.4799 12.3868C13.0623 12.3868 11.7851 12.3868 10.286 12.3868C10.3762 11.9208 10.5415 11.481 10.7715 11.0821C12.0556 11.0821 13.1087 11.0821 13.4799 11.0821C14.2902 11.0821 14.2902 12.3868 13.4799 12.3868ZM3.84534 11.0821C4.327 11.0821 5.95874 11.0821 7.75409 11.0821C7.62025 11.5022 7.52407 11.9379 7.47203 12.3868C5.78957 12.3868 4.30214 12.3868 3.84545 12.3868C3.03526 12.3868 3.03526 11.0821 3.84534 11.0821ZM10.1068 20.2348C9.29613 20.2348 9.29613 18.931 10.1068 18.931C10.2024 18.931 10.298 18.931 10.3936 18.931C11.371 19.6282 12.5056 20.0582 13.7095 20.1862C13.6422 20.2134 13.567 20.2349 13.4803 20.2349C12.3551 20.2348 11.2316 20.2348 10.1068 20.2348Z" fill="white"/>
</svg>
