<svg width="16" height="16" viewBox="0 0 16 16" fill="none" xmlns="http://www.w3.org/2000/svg">
<path d="M2.33949 2.33949C-0.779829 5.4588 -0.779829 10.5339 2.33949 13.6532C5.4588 16.7725 10.5339 16.7725 13.6532 13.6532C16.7725 10.5339 16.7725 5.4588 13.6532 2.33949C10.5339 -0.779829 5.4588 -0.779829 2.33949 2.33949ZM10.9426 5.99284L8.93909 7.99634L10.9426 9.99984C11.2028 10.2601 11.2028 10.6823 10.9426 10.9426C10.6823 11.2028 10.2601 11.2028 9.99984 10.9426L7.99634 8.93909L5.99284 10.9426C5.7326 11.2028 5.31034 11.2028 5.05009 10.9426C4.78985 10.6823 4.78985 10.2601 5.05009 9.99984L7.05359 7.99634L5.05009 5.99284C4.78985 5.7326 4.78985 5.31034 5.05009 5.05009C5.31034 4.78985 5.7326 4.78985 5.99284 5.05009L7.99634 7.05359L9.99984 5.05009C10.2601 4.78985 10.6823 4.78985 10.9426 5.05009C11.2028 5.31034 11.2028 5.7326 10.9426 5.99284Z" fill="#212B36"/>
</svg>
