<svg width="26" height="26" viewBox="0 0 26 26" fill="none" xmlns="http://www.w3.org/2000/svg">
<rect x="0.5" y="0.5" width="25" height="25" rx="3.5" fill="#E8F9FF" stroke="#007EFF"/>
<path d="M11 12.5L5.5 17.5V20.5H8L8.5 20V18.5H10L10.5 17.5L11 16.5H12L13.5 15L15 15.5L17.5 15L19.5 13.5L20.5 11.5V10L20 8L19 6.5L17 5.5H15L13 6L11 8L10.5 10.5L11 12.5Z" fill="#007EFF"/>
<mask id="path-3-inside-1" fill="white">
<path d="M15.4681 5C12.4863 5 10.0604 7.42594 10.0604 10.4078C10.0604 11.0707 10.1781 11.7149 10.4107 12.3266L5.23995 17.4978C5.16604 17.5717 5.12451 17.6719 5.12451 17.7764V20.6059C5.12451 20.8236 5.30095 21 5.51861 21H7.85036C7.95476 21 8.05489 20.9586 8.12879 20.8848L8.91457 20.1002C8.98864 20.0263 9.03023 19.9259 9.03023 19.8213V18.8564H9.99389C10.2115 18.8564 10.388 18.68 10.388 18.4623V18.0761H10.7743C10.9919 18.0761 11.1684 17.8997 11.1684 17.682V16.834H12.0164C12.1209 16.834 12.2211 16.7925 12.295 16.7186L13.5488 15.4648C14.1606 15.6976 14.8049 15.8155 15.4681 15.8155C18.4499 15.8155 20.8759 13.3896 20.8759 10.4077C20.8759 7.42594 18.45 5 15.4681 5ZM15.4681 15.0273C14.8231 15.0273 14.1992 14.897 13.6138 14.64C13.4624 14.5736 13.2919 14.6102 13.1803 14.7189L13.1767 14.7222L11.8532 16.0458H10.7743C10.5567 16.0458 10.3802 16.2222 10.3802 16.4399V17.2879H9.99395C9.77632 17.2879 9.59986 17.4643 9.59986 17.682V18.0682H8.63617C8.41854 18.0682 8.24207 18.2447 8.24207 18.4623V19.6579L7.68729 20.2118H5.91276V19.6549L10.7297 14.838C10.8682 14.6995 10.8682 14.4749 10.7297 14.3364C10.5911 14.1979 10.3666 14.1978 10.228 14.3364L5.91276 18.6517V17.9397L11.1533 12.6988L11.1564 12.6954C11.2653 12.5838 11.3019 12.4134 11.2355 12.2619C10.9788 11.6765 10.8486 11.0527 10.8486 10.4078C10.8486 7.86056 12.921 5.78822 15.4682 5.78822C18.0155 5.78822 20.0878 7.86053 20.0878 10.4078C20.0877 12.955 18.0153 15.0273 15.4681 15.0273Z"/>
</mask>
<path d="M15.4681 5C12.4863 5 10.0604 7.42594 10.0604 10.4078C10.0604 11.0707 10.1781 11.7149 10.4107 12.3266L5.23995 17.4978C5.16604 17.5717 5.12451 17.6719 5.12451 17.7764V20.6059C5.12451 20.8236 5.30095 21 5.51861 21H7.85036C7.95476 21 8.05489 20.9586 8.12879 20.8848L8.91457 20.1002C8.98864 20.0263 9.03023 19.9259 9.03023 19.8213V18.8564H9.99389C10.2115 18.8564 10.388 18.68 10.388 18.4623V18.0761H10.7743C10.9919 18.0761 11.1684 17.8997 11.1684 17.682V16.834H12.0164C12.1209 16.834 12.2211 16.7925 12.295 16.7186L13.5488 15.4648C14.1606 15.6976 14.8049 15.8155 15.4681 15.8155C18.4499 15.8155 20.8759 13.3896 20.8759 10.4077C20.8759 7.42594 18.45 5 15.4681 5ZM15.4681 15.0273C14.8231 15.0273 14.1992 14.897 13.6138 14.64C13.4624 14.5736 13.2919 14.6102 13.1803 14.7189L13.1767 14.7222L11.8532 16.0458H10.7743C10.5567 16.0458 10.3802 16.2222 10.3802 16.4399V17.2879H9.99395C9.77632 17.2879 9.59986 17.4643 9.59986 17.682V18.0682H8.63617C8.41854 18.0682 8.24207 18.2447 8.24207 18.4623V19.6579L7.68729 20.2118H5.91276V19.6549L10.7297 14.838C10.8682 14.6995 10.8682 14.4749 10.7297 14.3364C10.5911 14.1979 10.3666 14.1978 10.228 14.3364L5.91276 18.6517V17.9397L11.1533 12.6988L11.1564 12.6954C11.2653 12.5838 11.3019 12.4134 11.2355 12.2619C10.9788 11.6765 10.8486 11.0527 10.8486 10.4078C10.8486 7.86056 12.921 5.78822 15.4682 5.78822C18.0155 5.78822 20.0878 7.86053 20.0878 10.4078C20.0877 12.955 18.0153 15.0273 15.4681 15.0273Z" fill="black"/>
<path d="M10.4107 12.3266L13.9464 15.862L16.2341 13.5742L15.0844 10.5499L10.4107 12.3266ZM5.23995 17.4978L1.70429 13.9623L1.70367 13.963L5.23995 17.4978ZM8.12879 20.8848L11.6613 24.4233L11.6617 24.423L8.12879 20.8848ZM8.91457 20.1002L5.38203 16.5617L5.38172 16.562L8.91457 20.1002ZM9.03023 18.8564V13.8564H4.03023V18.8564H9.03023ZM10.388 18.0761V13.0761H5.38798V18.0761H10.388ZM11.1684 16.834V11.834H6.16836V16.834H11.1684ZM12.295 16.7186L15.8298 20.2548L15.8305 20.2541L12.295 16.7186ZM13.5488 15.4648L15.3268 10.7916L12.3018 9.64071L10.0133 11.9292L13.5488 15.4648ZM20.8759 10.4077L15.8759 10.4077V10.4077H20.8759ZM13.6138 14.64L15.6237 10.0618L15.6232 10.0616L13.6138 14.64ZM13.1803 14.7189L16.5685 18.3959L16.6199 18.3486L16.67 18.2998L13.1803 14.7189ZM13.1767 14.7222L9.78853 11.0453L9.71342 11.1145L9.6412 11.1867L13.1767 14.7222ZM11.8532 16.0458V21.0458H13.9242L15.3887 19.5813L11.8532 16.0458ZM10.3802 17.2879V22.2879H15.3802V17.2879H10.3802ZM9.59986 18.0682V23.0682H14.5999V18.0682H9.59986ZM8.24207 19.6579L11.7748 23.1962L13.2421 21.7313V19.6579H8.24207ZM7.68729 20.2118V25.2118H9.75605L11.22 23.7501L7.68729 20.2118ZM5.91276 20.2118H0.912762V25.2118H5.91276V20.2118ZM5.91276 19.6549L2.37724 16.1193L0.912762 17.5838V19.6549H5.91276ZM10.7297 14.838L14.2652 18.3735L14.2652 18.3735L10.7297 14.838ZM10.228 14.3364L6.69327 10.8001L6.69246 10.8009L10.228 14.3364ZM5.91276 18.6517H0.912762V30.7228L9.44831 22.1872L5.91276 18.6517ZM5.91276 17.9397L2.3771 14.4043L0.912762 15.8687V17.9397H5.91276ZM11.1533 12.6988L14.6889 16.2342L14.7555 16.1676L14.8195 16.0986L11.1533 12.6988ZM11.1564 12.6954L7.57756 9.20373L7.53329 9.24911L7.49018 9.2956L11.1564 12.6954ZM11.2355 12.2619L15.8146 10.2538L15.8144 10.2535L11.2355 12.2619ZM20.0878 10.4078L25.0878 10.4079V10.4078H20.0878ZM15.4681 0C9.72487 0 5.06036 4.66451 5.06036 10.4078H15.0604C15.0604 10.1874 15.2477 10 15.4681 10V0ZM5.06036 10.4078C5.06036 11.6711 5.28634 12.9178 5.73703 14.1034L15.0844 10.5499C15.0699 10.5119 15.0604 10.4703 15.0604 10.4078H5.06036ZM6.87504 8.79122L1.70429 13.9623L8.77561 21.0332L13.9464 15.862L6.87504 8.79122ZM1.70367 13.963C0.693465 14.9736 0.124512 16.3449 0.124512 17.7764H10.1245C10.1245 18.9989 9.63862 20.1698 8.77623 21.0325L1.70367 13.963ZM0.124512 17.7764V20.6059H10.1245V17.7764H0.124512ZM0.124512 20.6059C0.124512 23.585 2.53953 26 5.51861 26V16C8.06237 16 10.1245 18.0621 10.1245 20.6059H0.124512ZM5.51861 26H7.85036V16H5.51861V26ZM7.85036 26C9.27899 26 10.6497 25.4332 11.6613 24.4233L4.59625 17.3463C5.46006 16.4839 6.63054 16 7.85036 16V26ZM11.6617 24.423L12.4474 23.6384L5.38172 16.562L4.59593 17.3466L11.6617 24.423ZM12.4471 23.6387C13.461 22.6266 14.0302 21.253 14.0302 19.8213H4.03023C4.03023 18.5988 4.51626 17.426 5.38203 16.5617L12.4471 23.6387ZM14.0302 19.8213V18.8564H4.03023V19.8213H14.0302ZM9.03023 23.8564H9.99389V13.8564H9.03023V23.8564ZM9.99389 23.8564C12.973 23.8564 15.388 21.4414 15.388 18.4623H5.38798C5.38798 15.9186 7.45012 13.8564 9.99389 13.8564V23.8564ZM15.388 18.4623V18.0761H5.38798V18.4623H15.388ZM10.388 23.0761H10.7743V13.0761H10.388V23.0761ZM10.7743 23.0761C13.7531 23.0761 16.1684 20.6613 16.1684 17.682H6.16836C6.16836 15.138 8.23072 13.0761 10.7743 13.0761V23.0761ZM16.1684 17.682V16.834H6.16836V17.682H16.1684ZM11.1684 21.834H12.0164V11.834H11.1684V21.834ZM12.0164 21.834C13.4479 21.834 14.8192 21.2651 15.8298 20.2548L8.76023 13.1823C9.62299 12.3199 10.7938 11.834 12.0164 11.834V21.834ZM15.8305 20.2541L17.0843 19.0003L10.0133 11.9292L8.75948 13.183L15.8305 20.2541ZM11.7708 20.138C12.9566 20.5891 14.2038 20.8155 15.4681 20.8155V10.8155C15.406 10.8155 15.3647 10.806 15.3268 10.7916L11.7708 20.138ZM15.4681 20.8155C21.2113 20.8155 25.8759 16.151 25.8759 10.4077H15.8759C15.8759 10.6281 15.6885 10.8155 15.4681 10.8155V20.8155ZM25.8759 10.4078C25.8759 4.66451 21.2114 0 15.4681 0V10C15.6886 10 15.8759 10.1874 15.8759 10.4077L25.8759 10.4078ZM15.4681 10.0273C15.4836 10.0273 15.5091 10.029 15.5408 10.0356C15.5725 10.0423 15.6011 10.0519 15.6237 10.0618L11.6039 19.2183C12.8288 19.756 14.1377 20.0273 15.4681 20.0273V10.0273ZM15.6232 10.0616C13.5376 9.14623 11.2062 9.66118 9.6907 11.1381L16.67 18.2998C15.3777 19.5591 13.3872 20.001 11.6043 19.2185L15.6232 10.0616ZM9.79213 11.042L9.78853 11.0453L16.5649 18.3992L16.5685 18.3959L9.79213 11.042ZM9.6412 11.1867L8.31763 12.5103L15.3887 19.5813L16.7123 18.2578L9.6412 11.1867ZM11.8532 11.0458H10.7743V21.0458H11.8532V11.0458ZM10.7743 11.0458C7.79525 11.0458 5.38023 13.4608 5.38023 16.4399H15.3802C15.3802 18.9837 13.3181 21.0458 10.7743 21.0458V11.0458ZM5.38023 16.4399V17.2879H15.3802V16.4399H5.38023ZM10.3802 12.2879H9.99395V22.2879H10.3802V12.2879ZM9.99395 12.2879C7.01517 12.2879 4.59986 14.7027 4.59986 17.682H14.5999C14.5999 20.226 12.5375 22.2879 9.99395 22.2879V12.2879ZM4.59986 17.682V18.0682H14.5999V17.682H4.59986ZM9.59986 13.0682H8.63617V23.0682H9.59986V13.0682ZM8.63617 13.0682C5.65737 13.0682 3.24207 15.483 3.24207 18.4623H13.2421C13.2421 21.0064 11.1797 23.0682 8.63617 23.0682V13.0682ZM3.24207 18.4623V19.6579H13.2421V18.4623H3.24207ZM4.70933 16.1196L4.15455 16.6735L11.22 23.7501L11.7748 23.1962L4.70933 16.1196ZM7.68729 15.2118H5.91276V25.2118H7.68729V15.2118ZM10.9128 20.2118V19.6549H0.912762V20.2118H10.9128ZM9.44828 23.1904L14.2652 18.3735L7.19415 11.3025L2.37724 16.1193L9.44828 23.1904ZM14.2652 18.3735C16.3561 16.2826 16.3567 12.8919 14.2648 10.8005L7.19453 17.8723C5.37969 16.0579 5.38026 13.1163 7.19413 11.3025L14.2652 18.3735ZM14.2648 10.8005C12.1741 8.71024 8.78469 8.7096 6.69327 10.8001L13.7627 17.8727C11.9486 19.6861 9.00818 19.6856 7.19453 17.8723L14.2648 10.8005ZM6.69246 10.8009L2.37722 15.1162L9.44831 22.1872L13.7636 17.8719L6.69246 10.8009ZM10.9128 18.6517V17.9397H0.912762V18.6517H10.9128ZM9.44842 21.4751L14.6889 16.2342L7.6176 9.1634L2.3771 14.4043L9.44842 21.4751ZM14.8195 16.0986L14.8227 16.0952L7.49018 9.2956L7.48699 9.29904L14.8195 16.0986ZM14.7353 16.187C16.2134 14.6721 16.7295 12.3403 15.8146 10.2538L6.65646 14.2699C5.87436 12.4865 6.31715 10.4956 7.57756 9.20373L14.7353 16.187ZM15.8144 10.2535C15.8243 10.276 15.8338 10.3044 15.8404 10.3359C15.8469 10.3673 15.8486 10.3925 15.8486 10.4078H5.84864C5.84864 11.7373 6.11947 13.0456 6.65659 14.2702L15.8144 10.2535ZM15.8486 10.4078C15.8486 10.622 15.6824 10.7882 15.4682 10.7882V0.788218C10.1596 0.788218 5.84864 5.09914 5.84864 10.4078H15.8486ZM15.4682 10.7882C15.254 10.7882 15.0878 10.6219 15.0878 10.4078H25.0878C25.0878 5.09917 20.777 0.788218 15.4682 0.788218V10.7882ZM15.0878 10.4077C15.0878 10.1935 15.254 10.0273 15.4681 10.0273V20.0273C20.7767 20.0273 25.0876 15.7165 25.0878 10.4079L15.0878 10.4077Z" fill="black" mask="url(#path-3-inside-1)"/>
<path d="M17.1139 7.28564C16.2999 7.28564 15.6377 7.94783 15.6377 8.7618C15.6377 9.57577 16.2999 10.238 17.1139 10.238C17.9278 10.238 18.59 9.57577 18.59 8.7618C18.59 7.94783 17.9279 7.28564 17.1139 7.28564ZM17.1139 9.44977C16.7345 9.44977 16.4259 9.14114 16.4259 8.7618C16.4259 8.38246 16.7345 8.07383 17.1139 8.07383C17.4932 8.07383 17.8018 8.38246 17.8018 8.7618C17.8018 9.14114 17.4932 9.44977 17.1139 9.44977Z" fill="black"/>
</svg>
