<svg width="17" height="16" viewBox="0 0 17 16" fill="none" xmlns="http://www.w3.org/2000/svg">
<circle cx="8.99268" cy="8" r="8" fill="#212B36"/>
<path d="M11.564 7.9C11.351 7.9 11.1783 8.07269 11.1783 8.28571V11.1428C11.1783 11.2454 11.0952 11.3285 10.9926 11.3285H5.84981C5.74724 11.3285 5.66409 11.2454 5.66409 11.1428V5.4286C5.66409 5.32603 5.74724 5.24289 5.84981 5.24289H9.27833C9.49136 5.24289 9.66405 5.0702 9.66405 4.85717C9.66405 4.64414 9.49135 4.47147 9.27833 4.47147H5.84981C5.3212 4.47147 4.89268 4.89999 4.89268 5.4286V11.1428C4.89268 11.6714 5.3212 12.0999 5.84981 12.0999H10.9926C11.5212 12.0999 11.9497 11.6714 11.9497 11.1428V8.2857C11.9497 8.07268 11.777 7.9 11.564 7.9Z" fill="white" stroke="white" stroke-width="0.2"/>
<path d="M12.6725 4.32051C12.4674 4.11534 12.1891 4.00009 11.899 4.00013C11.6087 3.99929 11.3301 4.11473 11.1256 4.3207L7.36216 8.08377C7.33094 8.11523 7.30739 8.15346 7.29331 8.19548L6.72189 9.90975C6.67202 10.0595 6.75296 10.2212 6.90267 10.2711C6.93172 10.2808 6.96214 10.2857 6.99274 10.2857C7.02341 10.2857 7.0539 10.2808 7.08302 10.2712L8.79729 9.69977C8.8394 9.6857 8.87765 9.66203 8.90901 9.63063L12.6724 5.86725C13.0995 5.44016 13.0996 4.74766 12.6725 4.32051ZM12.2684 5.46353L8.55415 9.17777L7.44444 9.54833L7.81387 8.44005L11.5295 4.72583C11.7338 4.52196 12.0647 4.52229 12.2686 4.72656C12.366 4.82414 12.4208 4.95625 12.4212 5.09411C12.4216 5.2327 12.3666 5.36569 12.2684 5.46353Z" fill="white"/>
</svg>
