<svg width="27" height="27" viewBox="0 0 27 27" fill="none" xmlns="http://www.w3.org/2000/svg">
<path d="M11.9461 9.43594H14.5461V6.83594H11.9461V9.43594ZM13.2461 23.7359C7.51309 23.7359 2.84609 19.0689 2.84609 13.3359C2.84609 7.60294 7.51309 2.93594 13.2461 2.93594C18.9791 2.93594 23.6461 7.60294 23.6461 13.3359C23.6461 19.0689 18.9791 23.7359 13.2461 23.7359ZM13.2461 0.335938C11.5389 0.335938 9.84844 0.672192 8.27121 1.3255C6.69398 1.97881 5.26087 2.93639 4.05371 4.14355C1.61573 6.58152 0.246094 9.88812 0.246094 13.3359C0.246094 16.7838 1.61573 20.0904 4.05371 22.5283C5.26087 23.7355 6.69398 24.6931 8.27121 25.3464C9.84844 25.9997 11.5389 26.3359 13.2461 26.3359C16.6939 26.3359 20.0005 24.9663 22.4385 22.5283C24.8765 20.0904 26.2461 16.7838 26.2461 13.3359C26.2461 11.6288 25.9098 9.93828 25.2565 8.36105C24.6032 6.78382 23.6456 5.35071 22.4385 4.14355C21.2313 2.93639 19.7982 1.97881 18.221 1.3255C16.6437 0.672192 14.9533 0.335938 13.2461 0.335938ZM11.9461 19.8359H14.5461V12.0359H11.9461V19.8359Z" fill="#212B36"/>
</svg>
