<svg width="17" height="16" viewBox="0 0 17 16" fill="none" xmlns="http://www.w3.org/2000/svg">
<circle cx="8.99268" cy="8" r="8" fill="#212B36"/>
<g clip-path="url(#clip0)">
<path d="M13.9278 7.84612L12.6235 6.54184C12.5388 6.45684 12.4011 6.45668 12.3161 6.54145C12.2751 6.58233 12.2522 6.63787 12.2523 6.69574V7.34788H9.6437V4.73933H10.2958C10.4159 4.73956 10.5134 4.64239 10.5136 4.52233C10.5137 4.46446 10.4907 4.40892 10.4497 4.36804L9.14547 3.06377C9.06059 2.97891 8.92299 2.97891 8.83809 3.06377L7.53381 4.36804C7.44881 4.45282 7.44865 4.59046 7.53343 4.67546C7.57421 4.71634 7.62956 4.73931 7.68729 4.73933H8.33943V7.34788H5.73088V6.69574C5.7311 6.57569 5.63393 6.4782 5.51388 6.47797C5.456 6.47787 5.40047 6.50086 5.35959 6.54184L4.05531 7.84612C3.97045 7.931 3.97045 8.0686 4.05531 8.1535L5.35959 9.45777C5.44437 9.54277 5.58201 9.54294 5.66701 9.45816C5.70789 9.41738 5.73086 9.36203 5.73088 9.3043V8.65216H8.33943V11.2607H7.68729C7.56724 11.2605 7.46974 11.3577 7.46952 11.4777C7.46942 11.5356 7.4924 11.5911 7.53339 11.632L8.83766 12.9363C8.92254 13.0211 9.06014 13.0211 9.14504 12.9363L10.4493 11.632C10.5343 11.5472 10.5345 11.4096 10.4497 11.3246C10.4089 11.2837 10.3536 11.2607 10.2958 11.2607H9.6437V8.65216H12.2523V9.3043C12.252 9.42435 12.3492 9.52184 12.4693 9.52207C12.5271 9.52217 12.5827 9.49918 12.6235 9.4582L13.9278 8.15392C14.0128 8.06915 14.013 7.9315 13.9282 7.8465C13.9281 7.84638 13.928 7.84624 13.9278 7.84612Z" fill="white"/>
</g>
<defs>
<clipPath id="clip0">
<rect width="10" height="10" fill="white" transform="translate(3.99268 3)"/>
</clipPath>
</defs>
</svg>
