<svg width="23" height="24" viewBox="0 0 23 24" fill="none" xmlns="http://www.w3.org/2000/svg">
  <g clip-path="url(#clip0)">
  <path d="M22.0899 5.73895L11.647 0.697552C11.5544 0.652899 11.4466 0.652899 11.3541 0.697552L0.911127 5.73895C0.794689 5.79515 0.720703 5.91307 0.720703 6.04236V18.2858C0.720703 18.4151 0.794689 18.533 0.911127 18.5892L11.354 23.6306C11.4003 23.6529 11.4504 23.6641 11.5005 23.6641C11.5506 23.6641 11.6007 23.6529 11.647 23.6306L22.0899 18.5892C22.2063 18.533 22.2803 18.4151 22.2803 18.2858V6.0424C22.2803 5.91303 22.2063 5.7952 22.0899 5.73895ZM11.5005 1.37511L21.1685 6.04236L18.3659 7.39531C18.3482 7.38179 18.3294 7.3693 18.3089 7.35938L8.7066 2.72389L11.5005 1.37511ZM7.94571 3.10483L17.5996 7.76529L15.6224 8.71984L5.97247 4.06126L7.94571 3.10483ZM17.8255 8.40444V11.9329L15.9786 12.8245V9.29605L17.8255 8.40444ZM21.6065 18.0744L11.8374 22.7904V11.2952L14.1677 10.1703C14.3352 10.0894 14.4055 9.88798 14.3246 9.72038C14.2437 9.55287 14.0423 9.48252 13.8747 9.56347L11.5005 10.7097L10.5663 10.2586C10.3987 10.1776 10.1973 10.248 10.1164 10.4155C10.0355 10.5831 10.1058 10.7845 10.2733 10.8654L11.1636 11.2952V22.7904L1.39453 18.0743V6.57913L8.83359 10.1704C8.88081 10.1932 8.93071 10.204 8.97981 10.204C9.10506 10.204 9.22536 10.1338 9.28344 10.0135C9.36435 9.84594 9.29409 9.64451 9.12653 9.5636L1.83256 6.04236L5.17947 4.42661L15.3001 9.31244C15.3016 9.31451 15.3032 9.31635 15.3048 9.31837V13.3613C15.3048 13.4772 15.3644 13.585 15.4626 13.6467C15.5171 13.6809 15.5793 13.6982 15.6417 13.6982C15.6917 13.6982 15.7418 13.6871 15.7882 13.6647L18.3089 12.4478C18.4253 12.3916 18.4993 12.2737 18.4993 12.1444V8.0792L21.6065 6.57917V18.0744Z" fill="#007EFF"/>
  <path d="M4.1742 16.7676L2.64169 16.0278C2.47404 15.9468 2.2727 16.0171 2.19179 16.1847C2.11089 16.3522 2.18115 16.5537 2.34871 16.6346L3.88122 17.3744C3.92843 17.3972 3.97834 17.408 4.02744 17.408C4.15268 17.408 4.27298 17.3378 4.33106 17.2175C4.41201 17.0499 4.34176 16.8485 4.1742 16.7676Z" fill="#007EFF"/>
  <path d="M5.58442 15.8493L2.64361 14.4296C2.47601 14.3487 2.27462 14.4189 2.19372 14.5865C2.11286 14.7541 2.18312 14.9555 2.35068 15.0364L5.29149 16.4561C5.3387 16.4789 5.38861 16.4897 5.43771 16.4897C5.56295 16.4897 5.68325 16.4196 5.74133 16.2992C5.82224 16.1316 5.75198 15.9302 5.58442 15.8493Z" fill="#007EFF"/>
  </g>
  <defs>
  <clipPath id="clip0">
  <rect width="23" height="23" fill="white" transform="translate(0 0.664062)"/>
  </clipPath>
  </defs>
</svg>
