<svg width="105" height="110" viewBox="0 0 105 110" fill="none" xmlns="http://www.w3.org/2000/svg">
<path d="M66.4847 23.469L66.2653 24.5181L67.3261 24.3649C67.8474 24.2896 68.3808 24.2505 68.9238 24.2505C75.0382 24.2505 79.9948 29.2072 79.9948 35.3216C79.9948 41.436 75.0382 46.3926 68.9238 46.3926H34.8074C28.693 46.3926 23.7363 41.436 23.7363 35.3216C23.7363 32.0979 25.1132 29.1969 27.3132 27.1725C29.2855 25.3577 31.9163 24.2505 34.8074 24.2505H36.3421C38.5364 24.2505 40.4201 23.2609 41.8542 22.0873C43.2879 20.9141 44.3328 19.5093 44.8679 18.5492L44.9142 18.4662L44.9383 18.3742C46.1837 13.623 50.5078 10.1187 55.6484 10.1187C61.7628 10.1187 66.7195 15.0753 66.7195 21.1897C66.7195 21.9717 66.6385 22.7341 66.4847 23.469Z" stroke="#197BBD" stroke-width="1.5"/>
<path d="M60.7422 62.1975V52.707" stroke="#197BBD" stroke-width="1.5" stroke-linecap="round" stroke-linejoin="round"/>
<path d="M55.9961 57.4523L60.7413 52.707L65.4865 57.4523" stroke="#197BBD" stroke-width="1.5" stroke-linecap="round" stroke-linejoin="round"/>
<path d="M43.7949 44.5734L48.5402 39.8281L53.2854 44.5734" stroke="#197BBD" stroke-width="0.683017" stroke-linecap="round" stroke-linejoin="round"/>
<g clip-path="url(#clip0)">
<path d="M45.6474 60.2447L37.0192 68.8729C36.4898 69.4023 36.4898 70.2608 37.0192 70.7902L42.7713 76.5423C43.3008 77.0718 44.1592 77.0718 44.6887 76.5423L53.3168 67.9142C53.8463 67.3847 53.8463 66.5263 53.3168 65.9968L47.5647 60.2447C47.0353 59.7153 46.1768 59.7153 45.6474 60.2447Z" stroke="#197BBD" stroke-width="1.5" stroke-linecap="round" stroke-linejoin="round"/>
<path d="M38.9355 72.707L49.481 62.1615" stroke="#197BBD" stroke-width="1.5" stroke-linecap="round" stroke-linejoin="round"/>
</g>
<circle cx="37.8606" cy="17.7182" r="11.7215" transform="rotate(-30 37.8606 17.7182)" stroke="#197BBD" stroke-width="1.5"/>
<path d="M41.5603 17.2217C41.7785 17.5995 41.8773 18.0079 41.8569 18.4467C41.8448 18.8809 41.7131 19.3073 41.4621 19.726C41.2192 20.14 40.8739 20.5092 40.4259 20.8335L41.2297 22.2257C41.2914 22.3325 41.3042 22.4401 41.2682 22.5484C41.2452 22.6603 41.1803 22.7471 41.0735 22.8087C40.9667 22.8703 40.855 22.8855 40.7384 22.8543C40.6348 22.8265 40.5521 22.7593 40.4905 22.6525L39.6938 21.2726C39.1574 21.5385 38.6269 21.6914 38.1025 21.7314C37.578 21.7714 37.0136 21.7139 36.4095 21.559C36.2635 21.5337 36.1573 21.4636 36.0909 21.3486C36.034 21.2501 36.0188 21.1384 36.0453 21.0136C36.08 20.884 36.1467 20.7908 36.2452 20.7339C36.3438 20.677 36.4578 20.6659 36.5874 20.7006C37.5228 20.9929 38.4183 20.9413 39.2741 20.5457L37.2825 17.096C36.3729 17.3036 35.6108 17.3493 34.9962 17.2333C34.3816 17.1172 33.8775 16.7183 33.4839 16.0366C33.1378 15.437 33.0662 14.8103 33.2691 14.1565C33.4673 13.4945 33.9089 12.922 34.5937 12.439L34.046 11.4903C33.9844 11.3835 33.9674 11.2783 33.9952 11.1747C34.0264 11.0581 34.0954 10.969 34.2022 10.9073C34.309 10.8457 34.4166 10.8328 34.525 10.8688C34.6368 10.8918 34.7236 10.9567 34.7852 11.0635L35.3258 11.9999C35.7848 11.7896 36.2507 11.6575 36.7234 11.6037C37.196 11.5498 37.6256 11.592 38.0121 11.7303C38.2159 11.7988 38.3462 11.8823 38.4031 11.9809C38.4553 12.0712 38.464 12.1812 38.4293 12.3107C38.3899 12.4321 38.3208 12.5212 38.2223 12.5781C38.1401 12.6255 38.0537 12.6371 37.963 12.6128C37.6414 12.4919 37.2835 12.4411 36.8895 12.4605C36.4955 12.4799 36.1165 12.5728 35.7526 12.7391L37.6874 16.0902C38.2867 15.9522 38.8093 15.8805 39.2551 15.875C39.7044 15.8565 40.1266 15.9523 40.5216 16.1623C40.9201 16.3593 41.2663 16.7124 41.5603 17.2217ZM34.2336 15.5709C34.4707 15.9816 34.8 16.2295 35.2215 16.3147C35.6512 16.3951 36.1794 16.3804 36.8059 16.2706L35.0134 13.1659C34.5538 13.5079 34.252 13.8957 34.1081 14.3292C33.9594 14.7545 34.0012 15.1684 34.2336 15.5709ZM40.0063 20.1066C40.4529 19.7611 40.7523 19.3692 40.9045 18.9309C41.0519 18.4844 41.0118 18.0641 40.7842 17.6698C40.5294 17.2474 40.1888 16.9896 39.7626 16.8962C39.3316 16.7946 38.7963 16.797 38.1568 16.9033L40.0063 20.1066Z" fill="#197BBD"/>
<path d="M22.9863 35.3206C22.9863 41.8492 28.2788 47.1417 34.8074 47.1417H68.9238C75.4524 47.1417 80.7448 41.8492 80.7448 35.3206C80.7448 28.792 75.4524 23.4996 68.9238 23.4996C68.3448 23.4996 67.7755 23.5412 67.2188 23.6216C67.3831 22.8364 67.4695 22.0227 67.4695 21.1887C67.4695 14.6601 62.177 9.36768 55.6484 9.36768C50.1584 9.36768 45.5425 13.1102 44.2128 18.1831C43.225 19.9552 40.2679 23.4996 36.3421 23.4996H34.8074C31.7209 23.4996 28.9107 24.6825 26.8054 26.6196C24.4575 28.78 22.9863 31.8785 22.9863 35.3206Z" fill="white"/>
<path d="M66.4847 23.468L66.2653 24.5171L67.3261 24.3639C67.8474 24.2886 68.3808 24.2496 68.9238 24.2496C75.0382 24.2496 79.9948 29.2062 79.9948 35.3206C79.9948 41.435 75.0382 46.3917 68.9238 46.3917H34.8074C28.693 46.3917 23.7363 41.435 23.7363 35.3206C23.7363 32.0969 25.1132 29.1959 27.3132 27.1715C29.2855 25.3567 31.9163 24.2496 34.8074 24.2496H36.3421C38.5364 24.2496 40.4201 23.2599 41.8542 22.0863C43.2879 20.9131 44.3328 19.5084 44.8679 18.5482L44.9142 18.4652L44.9383 18.3733C46.1837 13.622 50.5078 10.1177 55.6484 10.1177C61.7628 10.1177 66.7195 15.0744 66.7195 21.1887C66.7195 21.9708 66.6385 22.7331 66.4847 23.468Z" stroke="#197BBD" stroke-width="1.5"/>
<path d="M89.0515 14.3343C88.9004 15.9697 88.2866 17.5282 87.2821 18.8275C86.2775 20.1268 84.9237 21.1131 83.379 21.671C81.8344 22.229 80.1627 22.3355 78.5598 21.978C76.9568 21.6206 75.4888 20.8141 74.3275 19.6527C73.1662 18.4914 72.3596 17.0234 72.0022 15.4204C71.6448 13.8175 71.7512 12.1458 72.3092 10.6012C72.8671 9.05652 73.8534 7.70271 75.1527 6.69815C76.452 5.69359 78.0105 5.07984 79.6459 4.92871C78.6884 6.22404 78.2277 7.82 78.3475 9.42632C78.4673 11.0326 79.1596 12.5426 80.2986 13.6816C81.4376 14.8206 82.9476 15.5129 84.5539 15.6327C86.1602 15.7525 87.7562 15.2918 89.0515 14.3343V14.3343Z" stroke="#197BBD" stroke-width="1.5" stroke-linecap="round" stroke-linejoin="round"/>
<path d="M19 49.3171V39.8267" stroke="#197BBD" stroke-width="1.5" stroke-linecap="round" stroke-linejoin="round"/>
<path d="M19 47.9719V38.4814" stroke="#197BBD" stroke-width="1.5" stroke-linecap="round" stroke-linejoin="round"/>
<path d="M15.0742 43.2267L18.9998 38.4814L22.9253 43.2267" stroke="#197BBD" stroke-width="1.5" stroke-linecap="round" stroke-linejoin="round"/>
<path d="M25.2338 92.8471H23.0723V93.5296H24.4987V95.4286C24.0437 95.6562 23.4573 95.7874 22.9585 95.7874C21.4358 95.7874 20.3945 94.6935 20.3945 93.2146C20.3945 91.7094 21.4708 90.6418 22.8885 90.6418C23.5186 90.6418 24.1574 90.8956 24.5775 91.3506L25.1288 90.7731C24.5425 90.178 23.7549 89.9592 22.941 89.9592C21.0858 89.9592 19.6069 91.2631 19.6069 93.2146C19.6069 95.1574 20.9895 96.47 22.9148 96.47C23.7199 96.47 24.525 96.2862 25.2338 95.8924V92.8471ZM26.7156 96.3125H27.3981V92.217H26.7156V96.3125ZM26.558 90.6155C26.558 90.9043 26.7681 91.1143 27.0569 91.1143C27.3456 91.1143 27.5557 90.9043 27.5557 90.6155C27.5557 90.3442 27.3369 90.1167 27.0569 90.1167C26.7768 90.1167 26.558 90.3442 26.558 90.6155ZM32.2396 92.217H31.5045L30.2881 95.4286H30.2706L28.9929 92.217H28.1965L29.868 96.3125H30.6206L32.2396 92.217ZM36.12 95.1661C35.7962 95.5774 35.4024 95.7874 34.8161 95.7874C34.0722 95.7874 33.5297 95.1836 33.4772 94.4748H36.7851V94.256C36.7851 92.8996 35.9975 92.112 34.8423 92.112C33.6347 92.112 32.7421 92.9958 32.7421 94.2647C32.7421 95.4549 33.5297 96.4175 34.8161 96.4175C35.5774 96.4175 36.155 96.19 36.6363 95.5687L36.12 95.1661ZM33.4772 93.8972C33.5647 93.2059 34.0635 92.7421 34.8161 92.7421C35.5687 92.7421 36.0237 93.2059 36.05 93.8972H33.4772ZM43.7596 92.217H43.0157L41.7993 95.4286H41.7818L40.5129 92.217H39.7166L41.4143 96.3388L41.1342 97.1089C40.9855 97.5114 40.8192 97.7827 40.3729 97.7827C40.1804 97.7827 40.0316 97.7652 39.8916 97.7127L39.8041 98.3078C39.9878 98.3953 40.2241 98.4128 40.4166 98.4128C41.2392 98.4128 41.5105 97.9402 41.7818 97.2489L43.7596 92.217ZM44.2621 94.2647C44.2621 95.5424 45.1897 96.4175 46.4498 96.4175C47.71 96.4175 48.6376 95.5424 48.6376 94.2647C48.6376 92.9871 47.71 92.112 46.4498 92.112C45.1897 92.112 44.2621 92.9871 44.2621 94.2647ZM44.9972 94.2647C44.9972 93.4071 45.566 92.7421 46.4498 92.7421C47.3337 92.7421 47.9025 93.4071 47.9025 94.2647C47.9025 95.1224 47.3337 95.7874 46.4498 95.7874C45.566 95.7874 44.9972 95.1224 44.9972 94.2647ZM53.2648 92.217H52.5822V94.2122C52.5822 95.1486 52.1971 95.7874 51.3133 95.7874C50.6744 95.7874 50.3769 95.3586 50.3769 94.676V92.217H49.6943V94.7461C49.6943 95.7349 50.1756 96.4175 51.252 96.4175C51.9258 96.4175 52.4334 96.0412 52.6172 95.6387H52.6347C52.6347 95.8662 52.6522 96.0937 52.6522 96.3125H53.2998C53.2998 96.0412 53.2648 95.7174 53.2648 95.3411V92.217ZM54.557 96.3125H55.2396V94.3172C55.2396 93.3809 55.6071 92.7946 56.4385 92.7946C56.561 92.7946 56.6923 92.8121 56.806 92.8471L56.8498 92.1557C56.7535 92.1207 56.6573 92.112 56.5697 92.112C55.8959 92.112 55.3883 92.4883 55.2046 92.8908H55.1871C55.1871 92.6633 55.1696 92.4358 55.1696 92.217H54.522C54.522 92.4883 54.557 92.8121 54.557 93.1884V96.3125ZM60.0692 96.3125H60.7517V94.3172C60.7517 93.3809 61.1368 92.7421 62.0206 92.7421C62.5807 92.7421 62.8082 93.0921 62.8082 93.9935V96.3125H63.4908V93.9497C63.4908 93.2146 63.9721 92.7421 64.5497 92.7421C65.3461 92.7421 65.5473 93.2934 65.5473 93.8622V96.3125H66.2299V93.8272C66.2299 92.7683 65.8449 92.112 64.6722 92.112C64.0509 92.112 63.6746 92.4095 63.3771 92.8908C63.2458 92.6108 62.9658 92.112 62.0819 92.112C61.4081 92.112 60.9005 92.4883 60.7167 92.8908H60.6992C60.6992 92.6633 60.6817 92.4358 60.6817 92.217H60.0341C60.0341 92.4883 60.0692 92.8121 60.0692 93.1884V96.3125ZM67.285 94.2647C67.285 95.5424 68.2126 96.4175 69.4728 96.4175C70.7329 96.4175 71.6605 95.5424 71.6605 94.2647C71.6605 92.9871 70.7329 92.112 69.4728 92.112C68.2126 92.112 67.285 92.9871 67.285 94.2647ZM68.0201 94.2647C68.0201 93.4071 68.5889 92.7421 69.4728 92.7421C70.3566 92.7421 70.9254 93.4071 70.9254 94.2647C70.9254 95.1224 70.3566 95.7874 69.4728 95.7874C68.5889 95.7874 68.0201 95.1224 68.0201 94.2647ZM72.7172 96.3125H73.3998V94.3172C73.3998 93.3809 73.7849 92.7421 74.6687 92.7421C75.3076 92.7421 75.6051 93.1709 75.6051 93.8534V96.3125H76.2877V93.7834C76.2877 92.7946 75.8064 92.112 74.73 92.112C74.0561 92.112 73.5486 92.4883 73.3648 92.8908H73.3473C73.3473 92.6633 73.3298 92.4358 73.3298 92.217H72.6822C72.6822 92.4883 72.7172 92.8121 72.7172 93.1884V96.3125ZM80.7215 95.1661C80.3978 95.5774 80.004 95.7874 79.4176 95.7874C78.6738 95.7874 78.1312 95.1836 78.0787 94.4748H81.3866V94.256C81.3866 92.8996 80.599 92.112 79.4439 92.112C78.2362 92.112 77.3436 92.9958 77.3436 94.2647C77.3436 95.4549 78.1312 96.4175 79.4176 96.4175C80.179 96.4175 80.7566 96.19 81.2379 95.5687L80.7215 95.1661ZM78.0787 93.8972C78.1662 93.2059 78.665 92.7421 79.4176 92.7421C80.1702 92.7421 80.6253 93.2059 80.6515 93.8972H78.0787ZM85.9255 92.217H85.1817L83.9653 95.4286H83.9478L82.6789 92.217H81.8825L83.5802 96.3388L83.3002 97.1089C83.1514 97.5114 82.9851 97.7827 82.5388 97.7827C82.3463 97.7827 82.1975 97.7652 82.0575 97.7127L81.97 98.3078C82.1538 98.3953 82.3901 98.4128 82.5826 98.4128C83.4052 98.4128 83.6765 97.9402 83.9478 97.2489L85.9255 92.217ZM5.71688 104.188C6.04067 103.891 6.49573 103.742 6.93328 103.742C7.57211 103.742 7.94841 104.048 7.94841 104.643V104.766H7.68588C6.6795 104.766 5.1043 104.845 5.1043 106.201C5.1043 106.997 5.79564 107.418 6.62699 107.418C7.24832 107.418 7.70338 107.12 7.97466 106.7H7.99217C7.99217 106.875 7.99217 107.129 8.03592 107.312H8.69225C8.65725 107.102 8.631 106.84 8.631 106.604V104.845C8.631 103.69 8.12343 103.112 6.91578 103.112C6.32071 103.112 5.70813 103.313 5.28808 103.742L5.71688 104.188ZM7.94841 105.344V105.606C7.93091 106.271 7.52836 106.84 6.74076 106.84C6.22444 106.84 5.8394 106.647 5.8394 106.131C5.8394 105.58 6.39947 105.344 7.26582 105.344H7.94841ZM15.593 103.217H14.8579L13.9303 106.367H13.9128L12.8364 103.217H12.1188L11.0599 106.367H11.0424L10.106 103.217H9.35344L10.6836 107.312H11.3837L12.4163 104.162H12.4338L13.5977 107.312H14.2716L15.593 103.217ZM19.5066 106.166C19.1828 106.577 18.789 106.787 18.2027 106.787C17.4588 106.787 16.9162 106.184 16.8637 105.475H20.1716V105.256C20.1716 103.9 19.384 103.112 18.2289 103.112C17.0213 103.112 16.1286 103.996 16.1286 105.265C16.1286 106.455 16.9162 107.418 18.2027 107.418C18.964 107.418 19.5416 107.19 20.0229 106.569L19.5066 106.166ZM16.8637 104.897C16.9512 104.206 17.4501 103.742 18.2027 103.742C18.9552 103.742 19.4103 104.206 19.4366 104.897H16.8637ZM20.7725 106.656C21.1751 107.234 21.6739 107.418 22.3652 107.418C23.1791 107.418 24.0017 107.059 24.0017 106.131C24.0017 105.308 23.3891 105.046 22.6628 104.906C22.1202 104.801 21.6301 104.652 21.6301 104.311C21.6301 103.926 22.0589 103.742 22.4352 103.742C22.8378 103.742 23.1266 103.943 23.3016 104.232L23.8704 103.856C23.5904 103.331 23.0566 103.112 22.479 103.112C21.7177 103.112 20.9476 103.523 20.9476 104.32C20.9476 105.168 21.6126 105.335 22.3915 105.51C22.829 105.606 23.2666 105.72 23.2666 106.157C23.2666 106.604 22.794 106.787 22.3652 106.787C21.8839 106.787 21.5864 106.569 21.3151 106.236L20.7725 106.656ZM24.7174 105.265C24.7174 106.542 25.645 107.418 26.9051 107.418C28.1653 107.418 29.0929 106.542 29.0929 105.265C29.0929 103.987 28.1653 103.112 26.9051 103.112C25.645 103.112 24.7174 103.987 24.7174 105.265ZM25.4525 105.265C25.4525 104.407 26.0213 103.742 26.9051 103.742C27.789 103.742 28.3578 104.407 28.3578 105.265C28.3578 106.122 27.789 106.787 26.9051 106.787C26.0213 106.787 25.4525 106.122 25.4525 105.265ZM30.1496 107.312H30.8322V105.317C30.8322 104.381 31.2172 103.742 32.1011 103.742C32.6612 103.742 32.8887 104.092 32.8887 104.993V107.312H33.5713V104.95C33.5713 104.215 34.0526 103.742 34.6302 103.742C35.4265 103.742 35.6278 104.293 35.6278 104.862V107.312H36.3104V104.827C36.3104 103.768 35.9253 103.112 34.7527 103.112C34.1314 103.112 33.7551 103.41 33.4575 103.891C33.3263 103.611 33.0462 103.112 32.1624 103.112C31.4885 103.112 30.981 103.488 30.7972 103.891H30.7797C30.7797 103.663 30.7622 103.436 30.7622 103.217H30.1146C30.1146 103.488 30.1496 103.812 30.1496 104.188V107.312ZM40.7434 106.166C40.4196 106.577 40.0258 106.787 39.4395 106.787C38.6956 106.787 38.153 106.184 38.1005 105.475H41.4085V105.256C41.4085 103.9 40.6209 103.112 39.4657 103.112C38.2581 103.112 37.3654 103.996 37.3654 105.265C37.3654 106.455 38.153 107.418 39.4395 107.418C40.2008 107.418 40.7784 107.19 41.2597 106.569L40.7434 106.166ZM38.1005 104.897C38.188 104.206 38.6869 103.742 39.4395 103.742C40.1921 103.742 40.6471 104.206 40.6734 104.897H38.1005ZM44.4449 106.656C44.8475 107.234 45.3463 107.418 46.0376 107.418C46.8515 107.418 47.6741 107.059 47.6741 106.131C47.6741 105.308 47.0615 105.046 46.3352 104.906C45.7926 104.801 45.3026 104.652 45.3026 104.311C45.3026 103.926 45.7314 103.742 46.1077 103.742C46.5102 103.742 46.799 103.943 46.974 104.232L47.5428 103.856C47.2628 103.331 46.729 103.112 46.1514 103.112C45.3901 103.112 44.62 103.523 44.62 104.32C44.62 105.168 45.2851 105.335 46.0639 105.51C46.5015 105.606 46.939 105.72 46.939 106.157C46.939 106.604 46.4665 106.787 46.0376 106.787C45.5563 106.787 45.2588 106.569 44.9875 106.236L44.4449 106.656ZM48.5911 109.308H49.2736V106.586H49.2911C49.5449 107.05 50.1312 107.418 50.8663 107.418C52.0127 107.418 52.9141 106.49 52.9141 105.265C52.9141 104.022 52.0477 103.112 50.7613 103.112C50.1663 103.112 49.6674 103.375 49.2911 103.812H49.2736V103.217H48.5911V109.308ZM49.2736 105.265C49.2736 104.407 49.8425 103.742 50.7263 103.742C51.6102 103.742 52.179 104.407 52.179 105.265C52.179 106.122 51.6102 106.787 50.7263 106.787C49.8425 106.787 49.2736 106.122 49.2736 105.265ZM54.3522 104.188C54.6759 103.891 55.131 103.742 55.5686 103.742C56.2074 103.742 56.5837 104.048 56.5837 104.643V104.766H56.3212C55.3148 104.766 53.7396 104.845 53.7396 106.201C53.7396 106.997 54.4309 107.418 55.2623 107.418C55.8836 107.418 56.3387 107.12 56.6099 106.7H56.6274C56.6274 106.875 56.6274 107.129 56.6712 107.312H57.3275C57.2925 107.102 57.2663 106.84 57.2663 106.604V104.845C57.2663 103.69 56.7587 103.112 55.5511 103.112C54.956 103.112 54.3434 103.313 53.9233 103.742L54.3522 104.188ZM56.5837 105.344V105.606C56.5662 106.271 56.1636 106.84 55.376 106.84C54.8597 106.84 54.4747 106.647 54.4747 106.131C54.4747 105.58 55.0347 105.344 55.9011 105.344H56.5837ZM61.9705 103.76C61.5592 103.313 60.9991 103.112 60.3953 103.112C59.1351 103.112 58.2775 104.022 58.2775 105.265C58.2775 106.525 59.1264 107.418 60.3953 107.418C60.9903 107.418 61.5504 107.216 61.9442 106.761L61.4366 106.28C61.1829 106.63 60.8416 106.787 60.3953 106.787C59.5639 106.787 59.0126 106.105 59.0126 105.265C59.0126 104.425 59.4764 103.742 60.3953 103.742C60.8066 103.742 61.1391 103.891 61.4279 104.241L61.9705 103.76ZM65.8771 106.166C65.5534 106.577 65.1596 106.787 64.5732 106.787C63.8294 106.787 63.2868 106.184 63.2343 105.475H66.5422V105.256C66.5422 103.9 65.7546 103.112 64.5995 103.112C63.3918 103.112 62.4992 103.996 62.4992 105.265C62.4992 106.455 63.2868 107.418 64.5732 107.418C65.3346 107.418 65.9122 107.19 66.3935 106.569L65.8771 106.166ZM63.2343 104.897C63.3218 104.206 63.8206 103.742 64.5732 103.742C65.3258 103.742 65.7809 104.206 65.8071 104.897H63.2343ZM70.095 107.312H70.7776V103.217H70.095V107.312ZM69.9375 101.616C69.9375 101.904 70.1475 102.114 70.4363 102.114C70.7251 102.114 70.9351 101.904 70.9351 101.616C70.9351 101.344 70.7164 101.117 70.4363 101.117C70.1563 101.117 69.9375 101.344 69.9375 101.616ZM72.1361 107.312H72.8187V105.317C72.8187 104.381 73.2037 103.742 74.0876 103.742C74.7264 103.742 75.024 104.171 75.024 104.853V107.312H75.7065V104.783C75.7065 103.795 75.2252 103.112 74.1489 103.112C73.475 103.112 72.9675 103.488 72.7837 103.891H72.7662C72.7662 103.663 72.7487 103.436 72.7487 103.217H72.1011C72.1011 103.488 72.1361 103.812 72.1361 104.188V107.312ZM82.8911 103.76C82.4798 103.313 81.9197 103.112 81.3159 103.112C80.0557 103.112 79.1981 104.022 79.1981 105.265C79.1981 106.525 80.047 107.418 81.3159 107.418C81.9109 107.418 82.471 107.216 82.8648 106.761L82.3572 106.28C82.1035 106.63 81.7622 106.787 81.3159 106.787C80.4845 106.787 79.9332 106.105 79.9332 105.265C79.9332 104.425 80.397 103.742 81.3159 103.742C81.7272 103.742 82.0597 103.891 82.3485 104.241L82.8911 103.76ZM83.7174 107.312H84.3999V100.697H83.7174V107.312ZM85.5221 105.265C85.5221 106.542 86.4498 107.418 87.7099 107.418C88.9701 107.418 89.8977 106.542 89.8977 105.265C89.8977 103.987 88.9701 103.112 87.7099 103.112C86.4498 103.112 85.5221 103.987 85.5221 105.265ZM86.2572 105.265C86.2572 104.407 86.8261 103.742 87.7099 103.742C88.5938 103.742 89.1626 104.407 89.1626 105.265C89.1626 106.122 88.5938 106.787 87.7099 106.787C86.8261 106.787 86.2572 106.122 86.2572 105.265ZM94.5248 103.217H93.8423V105.212C93.8423 106.149 93.4572 106.787 92.5733 106.787C91.9345 106.787 91.637 106.359 91.637 105.676V103.217H90.9544V105.746C90.9544 106.735 91.4357 107.418 92.5121 107.418C93.1859 107.418 93.6935 107.041 93.8773 106.639H93.8948C93.8948 106.866 93.9123 107.094 93.9123 107.312H94.5598C94.5598 107.041 94.5248 106.717 94.5248 106.341V103.217ZM99.2212 107.312H99.9038V100.697H99.2212V103.812H99.2037C98.8274 103.375 98.3286 103.112 97.7336 103.112C96.4471 103.112 95.5808 104.022 95.5808 105.265C95.5808 106.49 96.4821 107.418 97.6285 107.418C98.3636 107.418 98.95 107.05 99.2037 106.586H99.2212V107.312ZM99.2212 105.265C99.2212 106.122 98.6524 106.787 97.7686 106.787C96.8847 106.787 96.3159 106.122 96.3159 105.265C96.3159 104.407 96.8847 103.742 97.7686 103.742C98.6524 103.742 99.2212 104.407 99.2212 105.265Z" fill="#404040"/>
<defs>
<clipPath id="clip0">
<rect width="16.2694" height="16.2694" fill="white" transform="translate(33.6641 68.3931) rotate(-45)"/>
</clipPath>
</defs>
</svg>
