<svg width="21" height="21" viewBox="0 0 21 21" fill="none" xmlns="http://www.w3.org/2000/svg">
<g clip-path="url(#clip0)">
<path d="M10.4458 12.8735C11.7243 12.8735 12.7607 11.8371 12.7607 10.5586C12.7607 9.28008 11.7243 8.24365 10.4458 8.24365C9.16729 8.24365 8.13086 9.28008 8.13086 10.5586C8.13086 11.8371 9.16729 12.8735 10.4458 12.8735Z" stroke="#4D506A" stroke-width="2" stroke-linecap="round" stroke-linejoin="round"/>
<path d="M16.1553 12.8733C16.0526 13.1061 16.0219 13.3642 16.0673 13.6146C16.1127 13.8649 16.232 14.0959 16.4099 14.2777L16.4562 14.324C16.5997 14.4673 16.7135 14.6376 16.7912 14.8249C16.8689 15.0123 16.9088 15.2131 16.9088 15.4159C16.9088 15.6187 16.8689 15.8195 16.7912 16.0069C16.7135 16.1942 16.5997 16.3644 16.4562 16.5078C16.3129 16.6513 16.1427 16.7651 15.9553 16.8428C15.768 16.9204 15.5672 16.9604 15.3643 16.9604C15.1615 16.9604 14.9607 16.9204 14.7734 16.8428C14.586 16.7651 14.4158 16.6513 14.2725 16.5078L14.2262 16.4615C14.0443 16.2836 13.8133 16.1642 13.563 16.1189C13.3127 16.0735 13.0545 16.1041 12.8218 16.2068C12.5935 16.3046 12.3989 16.4671 12.2618 16.6741C12.1247 16.8811 12.0511 17.1237 12.0501 17.372V17.5032C12.0501 17.9125 11.8875 18.305 11.5981 18.5945C11.3087 18.8839 10.9162 19.0465 10.5068 19.0465C10.0975 19.0465 9.705 18.8839 9.41558 18.5945C9.12615 18.305 8.96356 17.9125 8.96356 17.5032V17.4337C8.95758 17.1783 8.87491 16.9306 8.72629 16.7228C8.57766 16.515 8.36996 16.3567 8.13018 16.2686C7.89744 16.1658 7.63927 16.1352 7.38895 16.1806C7.13863 16.226 6.90765 16.3453 6.72579 16.5232L6.67949 16.5695C6.53616 16.713 6.36595 16.8268 6.1786 16.9045C5.99125 16.9822 5.79043 17.0221 5.58762 17.0221C5.3848 17.0221 5.18398 16.9822 4.99663 16.9045C4.80928 16.8268 4.63907 16.713 4.49574 16.5695C4.35225 16.4262 4.23842 16.256 4.16075 16.0686C4.08309 15.8813 4.04311 15.6804 4.04311 15.4776C4.04311 15.2748 4.08309 15.074 4.16075 14.8866C4.23842 14.6993 4.35225 14.5291 4.49574 14.3857L4.54204 14.3394C4.71993 14.1576 4.83926 13.9266 4.88465 13.6763C4.93004 13.426 4.8994 13.1678 4.79668 12.9351C4.69886 12.7068 4.53645 12.5122 4.32942 12.3751C4.1224 12.238 3.8798 12.1644 3.6315 12.1634H3.50032C3.09101 12.1634 2.69847 12.0008 2.40905 11.7114C2.11963 11.422 1.95703 11.0294 1.95703 10.6201C1.95703 10.2108 2.11963 9.81828 2.40905 9.52886C2.69847 9.23944 3.09101 9.07684 3.50032 9.07684H3.56977C3.82518 9.07086 4.07288 8.98819 4.28068 8.83957C4.48848 8.69094 4.64676 8.48324 4.73495 8.24346C4.83767 8.01072 4.86831 7.75255 4.82292 7.50223C4.77753 7.25191 4.6582 7.02093 4.48031 6.83907L4.43401 6.79277C4.29052 6.64944 4.17669 6.47924 4.09902 6.29188C4.02136 6.10453 3.98138 5.90371 3.98138 5.7009C3.98138 5.49808 4.02136 5.29726 4.09902 5.10991C4.17669 4.92256 4.29052 4.75235 4.43401 4.60902C4.57734 4.46553 4.74754 4.3517 4.9349 4.27404C5.12225 4.19637 5.32307 4.1564 5.52588 4.1564C5.7287 4.1564 5.92952 4.19637 6.11687 4.27404C6.30422 4.3517 6.47443 4.46553 6.61776 4.60902L6.66406 4.65532C6.84592 4.83321 7.0769 4.95255 7.32722 4.99793C7.57754 5.04332 7.83571 5.01268 8.06845 4.90996H8.13018C8.35841 4.81215 8.55306 4.64973 8.69016 4.4427C8.82726 4.23568 8.90084 3.99308 8.90183 3.74478V3.6136C8.90183 3.20429 9.06442 2.81175 9.35384 2.52233C9.64327 2.23291 10.0358 2.07031 10.4451 2.07031C10.8544 2.07031 11.247 2.23291 11.5364 2.52233C11.8258 2.81175 11.9884 3.20429 11.9884 3.6136V3.68305C11.9894 3.93135 12.063 4.17395 12.2001 4.38097C12.3372 4.588 12.5318 4.75041 12.76 4.84823C12.9928 4.95095 13.251 4.98159 13.5013 4.9362C13.7516 4.89081 13.9826 4.77148 14.1644 4.59359L14.2107 4.54729C14.3541 4.4038 14.5243 4.28997 14.7116 4.2123C14.899 4.13464 15.0998 4.09466 15.3026 4.09466C15.5054 4.09466 15.7062 4.13464 15.8936 4.2123C16.081 4.28997 16.2512 4.4038 16.3945 4.54729C16.538 4.69062 16.6518 4.86083 16.7295 5.04818C16.8071 5.23553 16.8471 5.43635 16.8471 5.63917C16.8471 5.84198 16.8071 6.0428 16.7295 6.23015C16.6518 6.4175 16.538 6.58771 16.3945 6.73104L16.3482 6.77734C16.1703 6.9592 16.051 7.19018 16.0056 7.4405C15.9602 7.69082 15.9908 7.94899 16.0935 8.18173V8.24346C16.1914 8.47169 16.3538 8.66634 16.5608 8.80344C16.7678 8.94054 17.0104 9.01412 17.2587 9.01511H17.3899C17.7992 9.01511 18.1918 9.1777 18.4812 9.46713C18.7706 9.75655 18.9332 10.1491 18.9332 10.5584C18.9332 10.9677 18.7706 11.3602 18.4812 11.6497C18.1918 11.9391 17.7992 12.1017 17.3899 12.1017H17.3205C17.0722 12.1027 16.8296 12.1762 16.6225 12.3134C16.4155 12.4505 16.2531 12.6451 16.1553 12.8733V12.8733Z" stroke="#4D506A" stroke-width="2" stroke-linecap="round" stroke-linejoin="round"/>
</g>
<defs>
<clipPath id="clip0">
<rect width="20" height="20" fill="white" transform="translate(0.753906 0.307617)"/>
</clipPath>
</defs>
</svg>
